<svg xmlns="http://www.w3.org/2000/svg" xmlns:xlink="http://www.w3.org/1999/xlink" width="123.5" height="133.71730827179294" viewBox="0 0 123.5 133.71730827179294" fill="none"><defs><linearGradient id="linear_0" x1="50.20242914979757%" y1="0%" x2="51.20242914979757%" y2="76.08145995262882%" gradientUnits="objectBoundingBox"><stop offset="0" stop-color="#4091F7" stop-opacity="1" /><stop offset="1" stop-color="#40AAF7" stop-opacity="1" /></linearGradient></defs><g opacity="1" transform="translate(0 0)  rotate(0 61.75 66.85865413589647)"><path id="路径 5" fill-rule="evenodd" fill="url(#linear_0)" transform="translate(0 18.70900000000006)  rotate(0 61.75 57.50415413589644)" opacity="1" d="M16.5,26C12.5,35.5 10.5,62 10.5,66C10.5,70 8.5,71.21 6.5,71.5C4.5,71.79 2,71.5 0,70.5C1,72 5.5,77.5 9.5,79C8,80.5 5.5,81 4,81C5.5,83 6.5,84 8.5,85C6.5,86 5,88 4.5,89C6,88 8.5,88 10,88C8.5,89.5 7.5,90.5 7.5,92C11,91 16.5,92 27.5,100C38.06,107.68 47.27,115.31 60.95,115C79.1,114.89 85.09,107.94 96,100C107,92 112.5,91 116,92C116,90.5 115,89.5 113.5,88C115,88 117.5,88 119,89C118.5,88 117,86 115,85C117,84 118,83 119.5,81C118,81 115.5,80.5 114,79C118,77.5 122.5,72 123.5,70.5C121.5,71.5 119,71.79 117,71.5C115,71.21 113,70 113,66C113,62 111,35.5 107,26C103.14,16.84 93.5,0 61.46,0C29.42,0 20.38,16.8 16.5,26Z " /><g opacity="1" transform="translate(68.5 54.20900000000006)  rotate(0 16.5 16.5)"><path id="路径 6" fill-rule="evenodd" style="fill:#FFFFFF" transform="translate(0 0)  rotate(0 16.5 16.5)" opacity="1" d="M16.5,0C7.39,0 0,7.39 0,16.5C0,25.61 7.39,33 16.5,33C25.61,33 33,25.61 33,16.5C33,7.39 25.61,0 16.5,0Z " /><path  id="路径 6" style="stroke:#3374C6; stroke-width:3; stroke-opacity:1; stroke-dasharray:0 0" transform="translate(0 0)  rotate(0 16.5 16.5)" d="M16.5,0C7.39,0 0,7.39 0,16.5C0,25.61 7.39,33 16.5,33C25.61,33 33,25.61 33,16.5C33,7.39 25.61,0 16.5,0Z " /><path id="路径 9" fill-rule="evenodd" style="fill:#000000" transform="translate(5.589909999999975 17.589909999999975)  rotate(0.95088 5.43409 5.43409)" opacity="1" d="M5.43,0C2.43,0 0,2.43 0,5.43C0,8.44 2.43,10.87 5.43,10.87C8.44,10.87 10.87,8.44 10.87,5.43C10.87,2.43 8.44,0 5.43,0Z " /><path id="路径 11" fill-rule="evenodd" style="fill:#FFFFFF" transform="translate(10.941949999999963 18.06386999999995)  rotate(-39.53359999999999 1.95105 2.96613)" opacity="1" d="M1.95,0C0.87,0 0,1.33 0,2.97C0,4.6 0.87,5.93 1.95,5.93C3.03,5.93 3.9,4.6 3.9,2.97C3.9,1.33 3.03,0 1.95,0Z " /></g><g opacity="1" transform="translate(22 54.20900000000006)  rotate(0 16.5 16.5)"><path id="路径 6" fill-rule="evenodd" style="fill:#FFFFFF" transform="translate(0 0)  rotate(0 16.5 16.5)" opacity="1" d="M16.5,33C25.61,33 33,25.61 33,16.5C33,7.39 25.61,0 16.5,0C7.39,0 0,7.39 0,16.5C0,25.61 7.39,33 16.5,33Z " /><path  id="路径 6" style="stroke:#3374C6; stroke-width:3; stroke-opacity:1; stroke-dasharray:0 0" transform="translate(0 0)  rotate(0 16.5 16.5)" d="M16.5,33C25.61,33 33,25.61 33,16.5C33,7.39 25.61,0 16.5,0C7.39,0 0,7.39 0,16.5C0,25.61 7.39,33 16.5,33Z " /><path id="路径 9" fill-rule="evenodd" style="fill:#000000" transform="translate(16.54191000000003 17.589909999999975)  rotate(-0.95088 5.43409 5.43409)" opacity="1" d="M5.43,10.87C8.44,10.87 10.87,8.44 10.87,5.43C10.87,2.43 8.44,0 5.43,0C2.43,0 0,2.43 0,5.43C0,8.44 2.43,10.87 5.43,10.87Z " /><path id="路径 11" fill-rule="evenodd" style="fill:#FFFFFF" transform="translate(18.15595000000002 18.06386999999995)  rotate(39.53359999999999 1.95105 2.96613)" opacity="1" d="M1.95,5.93C3.03,5.93 3.9,4.6 3.9,2.97C3.9,1.33 3.03,0 1.95,0C0.87,0 0,1.33 0,2.97C0,4.6 0.87,5.93 1.95,5.93Z " /></g><g opacity="1" transform="translate(27.644999999999982 0)  rotate(0 34.0565 17.8545)"><path id="路径 17" fill-rule="evenodd" style="fill:#A26000" transform="translate(5.289999999999964 1.983000000000061)  rotate(0 28.2825 10.009911177090714)" opacity="1" d="M0,7.94C21.16,27.77 45.32,19.84 56.57,7.94C52.6,7.94 46.29,5.95 41.66,0C39.68,2.65 35.71,7.34 27.77,7.34C19.84,7.34 17.19,3.97 15.21,0C9.26,7.93 2,7.93 0.01,7.94L0,7.94Z " /><path id="路径 18" fill-rule="evenodd" style="fill:#FFBA53" transform="translate(0 0)  rotate(0 34.0565 17.8545)" opacity="1" d="M48.94,15.12C40.34,15.38 35.71,5.95 33.73,0C32.4,4.63 27.11,15.16 17.86,14.86C8.6,14.55 4.68,8.77 0,3.31C0,17.19 6.61,35.05 33.73,35.71C53.57,35.71 68.11,25.79 68.11,3.31C62.93,8.49 57.53,14.86 48.94,15.12Z " /></g></g></svg>