<svg xmlns="http://www.w3.org/2000/svg" xmlns:xlink="http://www.w3.org/1999/xlink" width="39.54309999999998" height="42.504880000000014" viewBox="0 0 39.54309999999998 42.504880000000014" fill="none"><defs><linearGradient id="linear_0" x1="85.2613983223369%" y1="4.589073066433789%" x2="10.164352314310205%" y2="27.141777602948192%" gradientUnits="objectBoundingBox"><stop offset="0" stop-color="#4091F7" stop-opacity="1" /><stop offset="1" stop-color="#3BAAFB" stop-opacity="1" /></linearGradient></defs><path id="路径 3" fill-rule="evenodd" fill="url(#linear_0)" transform="translate(0 0)  rotate(0 19.77155 21.25244)" opacity="1" d="M22.75,0C2.76,0 0,27.8 0,42.5L28.54,42.5C28.74,35.83 28.79,29.79 30.44,24.5C33,16.33 35.6,10.26 39.54,6C35.54,4 30.44,7 28.54,8.5C28.54,6 30.04,3 33.04,1.5C25.54,-0.5 21.25,4.5 19.25,7C19.25,4.5 20.54,2 22.75,0Z " /><path id="路径 3" fill-rule="evenodd" style="fill:#000000" transform="translate(0 0)  rotate(0 19.77155 21.25244)" opacity="0.1" d="M22.75,0C2.76,0 0,27.8 0,42.5L28.54,42.5C28.74,35.83 28.79,29.79 30.44,24.5C33,16.33 35.6,10.26 39.54,6C35.54,4 30.44,7 28.54,8.5C28.54,6 30.04,3 33.04,1.5C25.54,-0.5 21.25,4.5 19.25,7C19.25,4.5 20.54,2 22.75,0Z " /></svg>