<?xml version="1.0" encoding="UTF-8"?>
<svg width="30px" height="30px" viewBox="0 0 30 30" version="1.1" xmlns="http://www.w3.org/2000/svg" xmlns:xlink="http://www.w3.org/1999/xlink">
    <title>set-icon/left/1</title>
    <g id="set-icon/left/1" stroke="none" stroke-width="1" fill="none" fill-rule="evenodd">
        <g id="编组" fill="#FFFFFF" transform="translate(6.000000, 8.000000)">
            <path d="M15,0 C16.6568542,-3.04359188e-16 18,1.34314575 18,3 L18,11 C18,12.6568542 16.6568542,14 15,14 L3,14 C1.34314575,14 -6.85272294e-16,12.6568542 0,11 L0,3 C-2.02906125e-16,1.34314575 1.34314575,3.04359188e-16 3,0 L15,0 Z M5.2,1.75 L3.8,1.75 C2.6954305,1.75 1.8,2.6454305 1.8,3.75 L1.8,3.75 L1.8,10.25 C1.8,11.3545695 2.6954305,12.25 3.8,12.25 L3.8,12.25 L5.2,12.25 C6.3045695,12.25 7.2,11.3545695 7.2,10.25 L7.2,10.25 L7.2,3.75 C7.2,2.6454305 6.3045695,1.75 5.2,1.75 L5.2,1.75 Z" id="形状结合"></path>
        </g>
    </g>
</svg>