<?xml version="1.0" encoding="UTF-8"?>
<svg width="30px" height="30px" viewBox="0 0 30 30" version="1.1" xmlns="http://www.w3.org/2000/svg" xmlns:xlink="http://www.w3.org/1999/xlink">
    <title>set-icon/布局/1</title>
    <g id="set-icon/布局/1" stroke="none" stroke-width="1" fill="none" fill-rule="evenodd">
        <g id="编组" fill="#FFFFFF" transform="translate(7.000000, 9.000000)">
            <path d="M14.4,0 C15.2836556,-9.47168734e-16 16,0.7163444 16,1.6 L16,11.4 C16,12.2836556 15.2836556,13 14.4,13 L1.6,13 C0.7163444,13 -1.13828005e-16,12.2836556 0,11.4 L0,1.6 C-1.082166e-16,0.7163444 0.7163444,-5.97197047e-17 1.6,0 L14.4,0 Z M3.84,6.5 L2.56,6.5 C2.02980664,6.5 1.6,6.92980664 1.6,7.46 L1.6,7.46 L1.6,8.79 C1.6,9.32019336 2.02980664,9.75 2.56,9.75 L2.56,9.75 L3.84,9.75 C4.37019336,9.75 4.8,9.32019336 4.8,8.79 L4.8,8.79 L4.8,7.46 C4.8,6.92980664 4.37019336,6.5 3.84,6.5 L3.84,6.5 Z M8.64,6.5 L7.36,6.5 C6.82980664,6.5 6.4,6.92980664 6.4,7.46 L6.4,7.46 L6.4,8.79 C6.4,9.32019336 6.82980664,9.75 7.36,9.75 L7.36,9.75 L8.64,9.75 C9.17019336,9.75 9.6,9.32019336 9.6,8.79 L9.6,8.79 L9.6,7.46 C9.6,6.92980664 9.17019336,6.5 8.64,6.5 L8.64,6.5 Z M13.44,6.5 L12.16,6.5 C11.6298066,6.5 11.2,6.92980664 11.2,7.46 L11.2,7.46 L11.2,8.79 C11.2,9.32019336 11.6298066,9.75 12.16,9.75 L12.16,9.75 L13.44,9.75 C13.9701934,9.75 14.4,9.32019336 14.4,8.79 L14.4,8.79 L14.4,7.46 C14.4,6.92980664 13.9701934,6.5 13.44,6.5 L13.44,6.5 Z M13.5875,3.25 L2.4125,3.25 C1.96376864,3.25 1.6,3.61376864 1.6,4.0625 C1.6,4.51123136 1.96376864,4.875 2.4125,4.875 L2.4125,4.875 L13.5875,4.875 C14.0362314,4.875 14.4,4.51123136 14.4,4.0625 C14.4,3.61376864 14.0362314,3.25 13.5875,3.25 L13.5875,3.25 Z" id="形状结合"></path>
        </g>
    </g>
</svg>