<?xml version="1.0" encoding="UTF-8"?>
<svg width="30px" height="30px" viewBox="0 0 30 30" version="1.1" xmlns="http://www.w3.org/2000/svg" xmlns:xlink="http://www.w3.org/1999/xlink">
    <title>set-icon/backup/1</title>
    <g id="set-icon/backup/1" stroke="none" stroke-width="1" fill="none" fill-rule="evenodd">
        <path d="M13.6,9 C15.6993162,9 17.4838624,10.3476908 18.1356625,12.2250965 C18.2871774,12.2082623 18.4426238,12.2 18.6,12.2 C21.0300529,12.2 23,14.1699471 23,16.6 C23,19.0300529 21.0300529,21 18.6,21 C18.5352389,21 18.4708045,20.9986009 18.4067255,20.9958312 C18.3382328,20.9982366 18.2693223,21 18.2,21 L11,21 C8.790861,21 7,19.209139 7,17 C7,15.6020089 7.71717417,14.3715227 8.80367991,13.6563841 C8.87833241,11.0715776 10.9972448,9 13.6,9 Z" id="形状结合" stroke="#FFFFFF" stroke-width="2.5" transform="translate(15.000000, 15.000000) scale(-1, 1) translate(-15.000000, -15.000000) "></path>
    </g>
</svg>