<?xml version="1.0" encoding="UTF-8"?>
<svg width="30px" height="30px" viewBox="0 0 30 30" version="1.1" xmlns="http://www.w3.org/2000/svg" xmlns:xlink="http://www.w3.org/1999/xlink">
    <title>set-icon/theme/1</title>
    <defs>
        <path d="M11.7233454,8 C11.8761375,8 12,8.12386247 12,8.27665457 L12,10.1133575 C12,10.4189417 11.7522751,10.6666667 11.4466909,10.6666667 L7.99933333,10.666 L8,15.3083636 C8,15.6903438 7.69034383,16 7.30836359,16 L6.02496975,16 C5.6429895,16 5.33333333,15.6903438 5.33333333,15.3083636 L5.33333333,10.666 L1.88664246,10.6666667 C1.58105827,10.6666667 1.33333333,10.4189417 1.33333333,10.1133575 L1.33333333,8.27665457 C1.33333333,8.12386247 1.4571958,8 1.6099879,8 L11.7233454,8 Z" id="path-1"></path>
        <filter x="-56.3%" y="-75.0%" width="212.5%" height="250.0%" filterUnits="objectBoundingBox" id="filter-2">
            <feOffset dx="0" dy="0" in="SourceAlpha" result="shadowOffsetOuter1"></feOffset>
            <feGaussianBlur stdDeviation="2" in="shadowOffsetOuter1" result="shadowBlurOuter1"></feGaussianBlur>
            <feColorMatrix values="0 0 0 0 0   0 0 0 0 0   0 0 0 0 0  0 0 0 0.6 0" type="matrix" in="shadowBlurOuter1"></feColorMatrix>
        </filter>
    </defs>
    <g id="set-icon/theme/1" stroke="none" stroke-width="1" fill="none" fill-rule="evenodd">
        <g id="编组" transform="translate(15.000000, 16.000000) rotate(-42.000000) translate(-15.000000, -16.000000) translate(9.000000, 8.000000)">
            <path d="M1.7716632,4.41688272e-13 L9.58663988,4.41688272e-13 C10.221379,4.42681896e-13 10.7746648,0.431992471 10.9286116,1.04777989 L11.3532383,2.74628667 C11.7827914,4.46449905 12,6.22890722 12,8 L12,9.28339384 C12,10.0473543 11.3806877,10.6666667 10.6167272,10.6666667 L2.71660616,10.6666667 C1.95264567,10.6666667 1.33333333,10.0473543 1.33333333,9.28339384 L1.33333333,8 C1.33333333,6.22890722 1.11612476,4.46449905 0.686571667,2.74628667 L0.429691441,1.71876577 C0.244403807,0.977615229 0.695019723,0.226588702 1.43617026,0.0413010682 C1.5458923,0.0138705592 1.65856431,4.41709048e-13 1.7716632,4.41688272e-13 Z" id="矩形" fill="#FFFFFF" opacity="0.800000012"></path>
            <g id="形状结合">
                <use fill="black" fill-opacity="1" filter="url(#filter-2)" xlink:href="#path-1"></use>
                <use fill="#FFFFFF" fill-rule="evenodd" xlink:href="#path-1"></use>
            </g>
        </g>
    </g>
</svg>