<?xml version="1.0" encoding="UTF-8"?>
<svg width="30px" height="30px" viewBox="0 0 30 30" version="1.1" xmlns="http://www.w3.org/2000/svg" xmlns:xlink="http://www.w3.org/1999/xlink">
    <title>set-icon/icon/1</title>
    <g id="set-icon/icon/1" stroke="none" stroke-width="1" fill="none" fill-rule="evenodd">
        <g id="icon" fill="#FFFFFF">
            <path d="M20,7 C21.6568542,7 23,8.34314575 23,10 L23,20 C23,21.6302935 21.6995726,22.9568559 20.0794362,22.9989687 C18.169187,17.0106345 18.7180813,11.2979874 11,15.3769654 C12.2545957,16.0727097 11.8414209,18.1679036 11.5698339,20.5715683 L11.5273196,20.9638833 C11.458476,21.6314431 11.4076422,22.3177731 11.4121542,23.0003611 L10,23 C8.34314575,23 7,21.6568542 7,20 L7,10 C7,8.34314575 8.34314575,7 10,7 L20,7 Z M15.0000118,10 L14.133,11.375 L13.9776526,11.3033878 L13.1828175,10.8980593 C13.1582076,10.8855094 13.1301937,10.8812719 13.102973,10.8859818 C13.0334272,10.8980151 12.9868041,10.964148 12.9988373,11.0336938 L12.9988373,11.0336938 L13.2831769,12.6770246 C13.3026703,12.7896866 13.3946162,12.8756969 13.5083267,12.88764 L13.5083267,12.88764 L14.1580689,12.9558826 C14.7178247,13.0146739 15.2821989,13.0146739 15.8419547,12.9558826 L15.8419547,12.9558826 L16.4916969,12.88764 C16.6054074,12.8756969 16.6973533,12.7896866 16.7168468,12.6770246 L16.7168468,12.6770246 L17.0011863,11.0336938 C17.0058962,11.0064732 17.0016588,10.9784592 16.9891089,10.9538494 C16.9570453,10.8909737 16.8800818,10.8659957 16.8172062,10.8980593 L16.8172062,10.8980593 L16.0223711,11.3033878 C15.9714786,11.3293405 15.919845,11.3532367 15.8675877,11.3750762 L15.8675877,11.3750762 L15.0000118,10 Z" id="形状结合"></path>
        </g>
        <g id="编组" transform="translate(12.065593, 12.000000)"></g>
    </g>
</svg>