<svg xmlns="http://www.w3.org/2000/svg" xmlns:xlink="http://www.w3.org/1999/xlink" width="456.10208341889836" height="264.3867174540326" viewBox="0 0 456.10208341889836 264.3867174540326" fill="none"><defs><linearGradient id="linear_0" x1="0%" y1="50%" x2="100%" y2="50%" gradientUnits="objectBoundingBox"><stop offset="0" stop-color="#F6D365" stop-opacity="1" /><stop offset="1" stop-color="#FDA085" stop-opacity="1" /></linearGradient><filter id="filter_5" x="0" y="0" width="72.00000000000006" height="20" filterUnits="userSpaceOnUse" color-interpolation-filters="sRGB"><feFlood flood-opacity="0" result="BackgroundImageFix"/>
          <feBlend mode="normal" in="SourceGraphic" in2="BackgroundImageFix" result="shape"/>
          <feGaussianBlur stdDeviation="1.5" result="effect1_foregroundBlur" /></filter><linearGradient id="linear_1" x1="0%" y1="50%" x2="100%" y2="50%" gradientUnits="objectBoundingBox"><stop offset="0" stop-color="#F6D365" stop-opacity="1" /><stop offset="1" stop-color="#FDA085" stop-opacity="1" /></linearGradient><filter id="filter_7" x="0" y="0" width="380.00000000000006" height="70" filterUnits="userSpaceOnUse" color-interpolation-filters="sRGB"><feFlood flood-opacity="0" result="BackgroundImageFix"/>
          <feBlend mode="normal" in="SourceGraphic" in2="BackgroundImageFix" result="shape"/>
          <feGaussianBlur stdDeviation="1.5" result="effect1_foregroundBlur" /></filter><linearGradient id="linear_2" x1="50%" y1="100%" x2="51%" y2="0%" gradientUnits="objectBoundingBox"><stop offset="0" stop-color="#A1C4FD" stop-opacity="1" /><stop offset="1" stop-color="#C2E9FB" stop-opacity="1" /></linearGradient><linearGradient id="linear_3" x1="50%" y1="100%" x2="51%" y2="0%" gradientUnits="objectBoundingBox"><stop offset="0" stop-color="#F093FB" stop-opacity="1" /><stop offset="1" stop-color="#F5576C" stop-opacity="1" /></linearGradient><linearGradient id="linear_4" x1="0%" y1="50%" x2="100%" y2="50%" gradientUnits="objectBoundingBox"><stop offset="0" stop-color="#FA709A" stop-opacity="1" /><stop offset="1" stop-color="#FEE140" stop-opacity="1" /></linearGradient><filter id="filter_13" x="0" y="0" width="445.00000000000006" height="159" filterUnits="userSpaceOnUse" color-interpolation-filters="sRGB"><feFlood flood-opacity="0" result="BackgroundImageFix"/>
          <feBlend mode="normal" in="SourceGraphic" in2="BackgroundImageFix" result="shape"/>
          <feGaussianBlur stdDeviation="1.5" result="effect1_foregroundBlur" /></filter><linearGradient id="linear_5" x1="50%" y1="100%" x2="51%" y2="0%" gradientUnits="objectBoundingBox"><stop offset="0" stop-color="#FF9A9E" stop-opacity="1" /><stop offset="0.99" stop-color="#FAD0C4" stop-opacity="1" /><stop offset="1" stop-color="#FAD0C4" stop-opacity="1" /></linearGradient><filter id="filter_14" x="315" y="-4" width="28" height="28" filterUnits="userSpaceOnUse" color-interpolation-filters="sRGB"><feFlood flood-opacity="0" result="BackgroundImageFix"/>
          <feColorMatrix in="SourceAlpha" type="matrix" values="0 0 0 0 0 0 0 0 0 0 0 0 0 0 0 0 0 0 127 0"/>
          <feOffset dx="0" dy="2"/>
          <feGaussianBlur stdDeviation="2"/>
          <feColorMatrix type="matrix" values="0 0 0 0 0 0 0 0 0 0 0 0 0 0 0 0 0 0 0.25 0"/>
          <feBlend mode="normal" in2="BackgroundImageFix" result="effect1_Shadow"/>
          <feBlend mode="normal" in="SourceGraphic" in2="effect1_Shadow" result="shape"/></filter><filter id="filter_15" x="0" y="0" width="658" height="20" filterUnits="userSpaceOnUse" color-interpolation-filters="sRGB"><feFlood flood-opacity="0" result="BackgroundImageFix"/>
          <feBlend mode="normal" in="SourceGraphic" in2="BackgroundImageFix" result="shape"/>
          <feGaussianBlur stdDeviation="2" result="effect1_foregroundBlur" /></filter><linearGradient id="linear_6" x1="0%" y1="50%" x2="100%" y2="50%" gradientUnits="objectBoundingBox"><stop offset="0" stop-color="#FA709A" stop-opacity="1" /><stop offset="1" stop-color="#FEE140" stop-opacity="1" /></linearGradient><filter id="filter_19" x="0" y="0" width="239.00000000000006" height="93" filterUnits="userSpaceOnUse" color-interpolation-filters="sRGB"><feFlood flood-opacity="0" result="BackgroundImageFix"/>
          <feBlend mode="normal" in="SourceGraphic" in2="BackgroundImageFix" result="shape"/>
          <feGaussianBlur stdDeviation="8" result="effect1_foregroundBlur" /></filter><rect id="path_0" x="0" y="0" width="33" height="36.300000000000004" /><rect id="path_1" x="0" y="0" width="49" height="49" /><rect id="path_2" x="0" y="0" width="16" height="16" /></defs><g opacity="1" transform="translate(0 0)  rotate(0 228.05104170944918 132.1933587270163)"><g opacity="1" transform="translate(0 0)  rotate(0 228.05104170944918 132.1933587270163)"><g id="圆形 1" filter="url(#filter_5)"><path id="圆形 1" fill-rule="evenodd" fill="url(#linear_0)" transform="translate(26.00000000000003 0)  rotate(0 10 10)" opacity="1" d="M10,0C4.48,0 0,4.48 0,10C0,15.52 4.48,20 10,20C15.52,20 20,15.52 20,10C20,4.48 15.52,0 10,0Z " /></g><g id="圆形 1" filter="url(#filter_7)"><path id="圆形 1" fill-rule="evenodd" fill="url(#linear_1)" transform="translate(175.00000000000003 20)  rotate(0 15 15)" opacity="1" d="M15,0C6.72,0 0,6.72 0,15C0,23.28 6.72,30 15,30C23.28,30 30,23.28 30,15C30,6.72 23.28,0 15,0Z " /></g><path id="圆形 1" fill-rule="evenodd" fill="url(#linear_2)" transform="translate(344 153)  rotate(0 5.5 5.5)" opacity="1" d="M5.5,0C2.46,0 0,2.46 0,5.5C0,8.54 2.46,11 5.5,11C8.54,11 11,8.54 11,5.5C11,2.46 8.54,0 5.5,0Z " /><path id="圆形 1" fill-rule="evenodd" fill="url(#linear_3)" transform="translate(46.00000000000003 142)  rotate(0 5.5 5.5)" opacity="1" d="M5.5,0C2.46,0 0,2.46 0,5.5C0,8.54 2.46,11 5.5,11C8.54,11 11,8.54 11,5.5C11,2.46 8.54,0 5.5,0Z " /><g id="圆形 1" filter="url(#filter_13)"><path id="圆形 1" fill-rule="evenodd" fill="url(#linear_4)" transform="translate(217.00000000000003 74)  rotate(0 5.5 5.5)" opacity="1" d="M5.5,0C2.46,0 0,2.46 0,5.5C0,8.54 2.46,11 5.5,11C8.54,11 11,8.54 11,5.5C11,2.46 8.54,0 5.5,0Z " /></g><g id="圆形 1" filter="url(#filter_15)"><g id="圆形 1" filter="url(#filter_14)"><path id="圆形 1" fill-rule="evenodd" fill="url(#linear_5)" transform="translate(319 0)  rotate(0 10 10)" opacity="1" d="M10,0C4.48,0 0,4.48 0,10C0,15.52 4.48,20 10,20C15.52,20 20,15.52 20,10C20,4.48 15.52,0 10,0Z " /></g></g><path id="圆形 1" fill-rule="evenodd" fill="url(#linear_6)" transform="translate(95.00000000000003 98)  rotate(0 3.5 3.5)" opacity="1" d="M3.5,0C1.57,0 0,1.57 0,3.5C0,5.43 1.57,7 3.5,7C5.43,7 7,5.43 7,3.5C7,1.57 5.43,0 3.5,0Z " /><g id="矩形 1" filter="url(#filter_19)"><path id="矩形 1" fill-rule="evenodd" style="fill:#CCCCCC" transform="translate(116.00000000000003 43)  rotate(0 3.500000000000001 3.500000000000001)" opacity="1" d="M0,7L7,7L7,0L0,0L0,7Z " /><path  id="矩形 1" style="stroke:#FF8D1A; stroke-width:3; stroke-opacity:1; stroke-dasharray:0 0" transform="translate(116.00000000000003 43)  rotate(0 3.500000000000001 3.500000000000001)" d="M0,7L7,7L7,0L0,0L0,7Z " /></g><path id="路径 1" fill-rule="evenodd" style="fill:#2A82E4" transform="translate(2.5101487055387963 70.19335872701629)  rotate(1.582654332700443 225.54089300391038 94)" opacity="0.05" d="M0.6,135C-14.16,137.66 247.1,188 273.6,188C300.1,188 447.6,152 450.6,149C453.6,146 441.6,26.5 440.1,23.5C438.6,20.5 428.1,0 426.1,0C424.1,0 413.1,0 408.6,0C290.7,40.5 284.1,84 0.6,135Z " /></g><g opacity="0.43" transform="translate(128 95.7)  rotate(0 16.5 18.150000000000002)"><mask id="bg-mask-0" fill="white"><use xlink:href="#path_0"></use></mask><g mask="url(#bg-mask-0)" ><path id="路径 1" fill-rule="evenodd" style="fill:#F0F0F0" transform="translate(5.662207031249937 24.491865234375037)  rotate(0 12.958690059078592 4.810954284667968)" opacity="0.4" d="M25.14,9.46C28.14,8.51 21.47,4.57 21.47,4.57L0.49,0L0,6.69C0,6.69 22.14,10.42 25.14,9.46Z " /><path id="路径 2" fill-rule="evenodd" style="fill:#B77800" transform="translate(3.909072079580345 19.66012581673234)  rotate(0 12.739170107919717 2.011754088489685)" opacity="1" d="M0,1.92L0,2.03C0,3.09 0.78,3.96 1.74,3.96L23.73,4.02C24.69,4.03 25.48,3.17 25.48,2.11L25.48,1.99C25.48,0.93 24.7,0.07 23.73,0.06L1.75,0C0.79,0 0,0.86 0,1.92Z " /><path id="路径 3" fill-rule="evenodd" style="fill:#D68F00" transform="translate(3.970312499999939 19.660121688692396)  rotate(0 12.679541015625 1.4941996003701339)" opacity="1" d="M0,1.46C0.19,2.31 0.85,2.93 1.63,2.93L23.72,2.99C24.5,2.99 25.16,2.37 25.36,1.52C25.17,0.68 24.51,0.06 23.73,0.06L1.64,0C0.86,0 0.2,0.62 0,1.46Z " /><path id="路径 4" fill-rule="evenodd" style="fill:#89E065" transform="translate(4.449830348774146 17.589902343750012)  rotate(0 12.13788465790851 1.9697563261974596)" opacity="1" d="M21.2,2.84C21.7,3.27 22.69,4.19 23.42,3.86C26,2.72 21.94,0 21.94,0L2.33,0C2.33,0 -1.72,2.72 0.86,3.87C1.59,4.2 2.58,3.28 3.08,2.84C3.53,2.44 3.83,2.17 4.51,2.17C5.19,2.17 5.49,2.44 5.94,2.84C6.47,3.3 7.12,3.88 8.38,3.88C9.64,3.88 10.29,3.3 10.82,2.84C11.24,2.46 11.54,2.2 12.14,2.18C12.74,2.2 13.03,2.46 13.46,2.84C13.98,3.3 14.64,3.88 15.89,3.88C17.15,3.88 17.8,3.3 18.33,2.84C18.78,2.44 19.09,2.17 19.77,2.17C20.45,2.17 20.74,2.44 21.2,2.84Z " /><path id="分组 1" fill-rule="evenodd" style="fill:#72C84E" transform="translate(5.030566406249958 17.589902343750012)  rotate(0 11.846813341237935 1.969756326197464)" opacity="1" d="M1.16 2.84227C0.89 3.08227 0.45 3.48227 0 3.72227C0.09 3.78227 0.18 3.83227 0.28 3.87227C1.01 4.19228 2 3.27227 2.49 2.84227C2.77 2.60227 2.98 2.41227 3.26 2.29227C3.05 2.21227 2.83 2.16227 2.6 2.17227C1.92 2.17227 1.62 2.44227 1.16 2.84227Z M8.90496 2.83658C8.48496 3.21658 7.96496 3.65658 7.13496 3.81658C7.35496 3.85658 7.57496 3.88658 7.80496 3.88658C9.05496 3.88658 9.70496 3.30658 10.235 2.83658C10.475 2.63658 10.665 2.46658 10.895 2.34658C10.685 2.24658 10.455 2.18658 10.225 2.17658C9.62496 2.20658 9.32496 2.45658 8.90496 2.83658Z M20.0288 0C20.0288 0 23.7588 2.5 21.7788 3.72C22.1388 3.91 22.5088 4.01 22.8288 3.87C25.4188 2.72 21.3588 0 21.3588 0L20.0288 0Z M16.4137 2.84222C15.9938 3.21222 15.4738 3.65222 14.6438 3.81222C14.8638 3.85222 15.0837 3.88222 15.3138 3.88222C16.5637 3.88222 17.2138 3.30222 17.7437 2.84222C18.0238 2.60222 18.2437 2.40222 18.5138 2.29222C18.3038 2.20222 18.0837 2.16222 17.8538 2.17222C17.1737 2.17222 16.8738 2.44222 16.4137 2.84222Z " /><path id="路径 9" fill-rule="evenodd" style="fill:#FFAD00" transform="translate(4.1850288997263885 25.31783203125001)  rotate(0 12.53088849129909 2.9316503906250015)" opacity="1" d="M24.7,4.57L25.06,0.82C25.1,0.39 24.84,0 24.5,0L0.56,0.01C0.22,0.01 -0.04,0.39 0,0.83L0.37,4.58C0.44,5.31 0.91,5.86 1.48,5.86L23.59,5.86C24.16,5.86 24.63,5.31 24.7,4.57Z " /><path id="路径 10" fill-rule="evenodd" style="fill:#FFBF3D" transform="translate(4.18623046875003 25.31783203125001)  rotate(0 10.098193359374998 0.6859423828124988)" opacity="1" d="M0,0.67L0,0.71C0,1.07 0.27,1.37 0.61,1.37L19.59,1.37C19.93,1.37 20.2,1.07 20.2,0.71L20.2,0.67C20.2,0.3 19.93,0 19.59,0L0.61,0C0.27,0 0,0.3 0,0.67Z " /><path id="路径 11" fill-rule="evenodd" style="fill:#F98900" transform="translate(5.662207031249939 25.332011718749968)  rotate(0 11.793887237652878 3.0540830748093644)" opacity="1" d="M22.11,5.85C22.68,5.85 23.15,5.3 23.23,4.56L23.58,0.81C23.62,0.41 23.4,0.05 23.1,0C20.73,3.52 14.69,6.13 0,5.85C0.15,6.43 22.11,5.85 22.11,5.85Z " /><path id="路径 12" fill-rule="evenodd" style="fill:#F7C200" transform="translate(4.578176219879291 23.467382812500002)  rotate(0 12.173190967620705 1.0227099609375008)" opacity="1" d="M24.35,1.11C24.37,0.54 23.98,0.06 23.5,0.06L0.9,0C0.42,0 0.03,0.41 0,0.94C-0.02,1.51 0.36,1.98 0.85,1.98L13.75,2.02L23.45,2.05C23.92,2.05 24.32,1.63 24.35,1.11Z " /><path id="路径 13" fill-rule="evenodd" style="fill:#F7C200" transform="translate(21.143847656249967 25.31783203125001)  rotate(0 2.945507812499999 2.215863853200346)" opacity="1" d="M4.2,0L0,2.77L1.05,3.99C1.28,4.26 1.77,4.83 2.48,3.98L5.89,0.02L4.2,0Z " /><path id="路径 14" fill-rule="evenodd" style="fill:#FFDE00" transform="translate(4.634179687500063 23.467382812500002)  rotate(0 12.117187500000004 2.9984302828543865)" opacity="1" d="M23.44,0.06L0.84,0C0.47,0 0.13,0.27 0,0.66C0.12,1.03 0.43,1.29 0.79,1.29L13.59,1.33L17.42,5.8C17.63,6.05 17.99,6.07 18.22,5.83C18.23,5.82 18.24,5.81 18.25,5.8L22.06,1.35L23.39,1.35C23.77,1.35 24.11,1.09 24.23,0.7C24.11,0.33 23.81,0.07 23.44,0.06Z " /><path id="路径 15" fill-rule="evenodd" style="fill:#F37100" transform="translate(4.3763508424028865 17.019169921874965)  rotate(0 12.171989001347152 1.2336418023034348)" opacity="1" d="M0,1.16L0,1.23C0,1.88 0.47,2.4 1.06,2.4L23.28,2.47C23.87,2.47 24.34,1.95 24.34,1.3L24.34,1.23C24.35,0.59 23.87,0.06 23.29,0.06L1.06,0C0.48,0 0,0.52 0,1.16Z " /><path id="路径 16" fill-rule="evenodd" style="fill:#FF7E15" transform="translate(4.431152343749999 17.05107421875)  rotate(0 12.118798828125001 0.7018945312499985)" opacity="1" d="M0.8,0C0.43,0 0.12,0.28 0,0.67C0.12,1.06 0.43,1.34 0.79,1.34L23.44,1.4C23.81,1.4 24.12,1.12 24.24,0.73C24.12,0.34 23.81,0.07 23.44,0.06L0.8,0Z " /><path id="路径 17" fill-rule="evenodd" style="fill:#F98900" transform="translate(4.001076275100602 5.74929360395993)  rotate(0 12.340736715631966 5.389439644179826)" opacity="1" d="M24.6,7.84C22.02,2.81 17.16,-0.4 11.8,0.04C6.44,0.48 2.01,4.43 0.05,9.83C-0.12,10.3 0.2,10.81 0.63,10.78L24.13,8.87C24.56,8.84 24.82,8.28 24.6,7.84Z " /><path id="路径 18" fill-rule="evenodd" style="fill:#FFAA00" transform="translate(4.001158865850879 5.749619106538627)  rotate(0 10.772418613949577 5.361816423293207)" opacity="1" d="M0.05,9.83C-0.08,10.18 0.07,10.57 0.38,10.72C3.59,10.67 7.44,9.99 11.47,8.63C15.37,7.32 18.84,5.57 21.54,3.69C18.92,1.16 15.48,-0.26 11.8,0.04C6.44,0.48 2.01,4.43 0.05,9.83Z " /><path id="路径 19" fill-rule="evenodd" style="fill:#FFD393" transform="translate(4.005761718750063 5.7493405694356845)  rotate(0 10.5638671875 5.018098269969651)" opacity="1" d="M21.13,3.31C18.56,1.01 15.28,-0.24 11.79,0.04C6.43,0.48 2,4.43 0.04,9.83C0.02,9.9 0.01,9.97 0,10.04C2.15,4.88 6.71,1.15 12.18,0.73C15.34,0.48 18.49,1.39 21.13,3.31Z " /><path id="路径 20" fill-rule="evenodd" style="fill:#FFC75A" transform="translate(8.88555833154847 8.962785638895935)  rotate(0 2.171504168451469 1.2820208553105927)" opacity="1" d="M1.35,2.43C2.06,2.22 2.88,1.81 3.5,1.36C4.11,0.9 4.43,0.46 4.32,0.21C4.22,-0.04 3.71,-0.07 3,0.14C2.28,0.34 1.46,0.75 0.84,1.21C0.23,1.67 -0.08,2.1 0.02,2.35C0.12,2.6 0.63,2.63 1.35,2.43Z " /><path id="路径 21" fill-rule="evenodd" style="fill:#9AEE77" transform="translate(4.933093711738547 19.73584249272318)  rotate(0 0.4526971282260686 0.4526391941002717)" opacity="0.6" d="M0.4,0.85C0.56,0.77 0.72,0.62 0.82,0.46C0.91,0.3 0.93,0.15 0.87,0.06C0.77,-0.06 0.5,0.01 0.27,0.22C0.04,0.43 -0.06,0.71 0.04,0.84C0.1,0.92 0.24,0.93 0.4,0.85Z " /><path id="路径 22" fill-rule="evenodd" style="fill:#FFFFFF" transform="translate(9.337640293749644 9.28417022028635)  rotate(0 0.6170996875737947 0.4845163445655424)" opacity="1" d="M0.77,0.88C1.1,0.72 1.3,0.42 1.21,0.2C1.16,0.06 1,-0.02 0.78,0C0.57,0.02 0.34,0.13 0.18,0.29C0.03,0.45 -0.04,0.63 0.02,0.77C0.11,0.99 0.44,1.03 0.77,0.88Z " /></g></g><g opacity="0.51" transform="translate(299 29)  rotate(0 24.5 24.5)"><mask id="bg-mask-1" fill="white"><use xlink:href="#path_1"></use></mask><g mask="url(#bg-mask-1)" ><path id="路径 1" fill-rule="evenodd" style="fill:#D3D3D3" transform="translate(10.627832031249953 30.34121931001001)  rotate(0 4.383203125 2.195776331905191)" opacity="1" d="M5.36,0.17C5.36,0.17 4.89,0.89 3.59,2.35C2.29,3.82 1.57,4.13 0.57,3.27C0.4,3.12 0.21,3.03 0,2.99C0.27,3.84 1.94,4.75 3.04,4.25C3.53,4.02 3.82,3.53 4.68,2.71C5.37,2.04 5.6,2.71 6.76,2.89C7.88,1.82 8.77,1.46 8.77,1.46C8.18,-0.7 5.36,0.17 5.36,0.17Z " /><path id="路径 2" fill-rule="evenodd" style="fill:#FFFFFF" transform="translate(9.198866667921834 32.75486630506015)  rotate(0 4.092802994164083 3.0978993600356244)" opacity="1" d="M8.19,0.47C7.03,0.29 6.8,-0.38 6.1,0.29C5.25,1.12 4.95,1.61 4.46,1.84C3.36,2.34 1.69,1.43 1.42,0.58C1.35,0.56 1.28,0.55 1.21,0.55C0.73,1.06 -0.52,2.55 0.24,3.21C1.16,4 2.27,2.7 2.6,3.78C2.92,4.85 2.24,5.62 2.91,5.96C3.57,6.31 4.08,6.46 4.96,5.04C5.17,4.7 5.35,4.51 5.51,4.42C5.6,4.16 5.7,3.89 5.85,3.62C6.61,2.2 7.45,1.18 8.19,0.47Z " /><path id="路径 3" fill-rule="evenodd" style="fill:#D3D3D3" transform="translate(8.191338476701725 33.30287421413908)  rotate(0 3.2639010741491665 3.361823982443923)" opacity="1" d="M3.92,5.41C3.26,5.07 3.94,4.3 3.61,3.23C3.28,2.16 2.18,3.46 1.25,2.66C0.5,2 1.75,0.52 2.23,0C1.25,-0.05 0.11,0.86 0.01,2.1C-0.22,4.98 3.58,2.95 2.77,4.37C1.95,5.78 3.58,7.05 4.76,6.65C6.26,6.14 6.12,5.13 6.53,3.87C6.37,3.96 6.18,4.16 5.98,4.49C5.09,5.91 4.59,5.76 3.92,5.41Z " /><path id="路径 4" fill-rule="evenodd" style="fill:#840615" transform="translate(7.903473152298848 30.22823788784632)  rotate(0 5.8895872254768085 5.040959181076812)" opacity="1" d="M5.14,10C6.47,9.54 6.68,8.69 6.89,7.79C6.95,7.55 7.01,7.3 7.09,7.04C7.18,6.77 7.28,6.52 7.4,6.29C8.04,5.09 8.81,4.05 9.69,3.22C10.74,2.21 11.59,1.85 11.6,1.85C11.75,1.79 11.82,1.62 11.76,1.47C11.7,1.33 11.53,1.26 11.39,1.32C11.35,1.33 10.44,1.7 9.29,2.8C8.37,3.68 7.57,4.77 6.9,6.02C6.76,6.29 6.64,6.56 6.54,6.87C6.45,7.15 6.39,7.41 6.33,7.66C6.12,8.53 5.98,9.11 4.95,9.46C4.44,9.63 3.77,9.42 3.39,8.95C3.2,8.72 2.93,8.23 3.3,7.59C3.36,7.49 3.55,7.16 3.39,6.89C3.22,6.58 2.82,6.58 2.31,6.58C1.79,6.58 1.15,6.58 0.82,6.23C0.62,6.02 0.55,5.67 0.59,5.21C0.66,4.31 1.51,3.32 2.5,3.37C2.56,3.37 2.61,3.38 2.67,3.39C2.83,3.42 2.98,3.49 3.11,3.6C3.54,3.98 3.94,4.15 4.33,4.15C5.03,4.15 5.71,3.58 6.52,2.66C7.82,1.19 8.3,0.47 8.32,0.44C8.41,0.32 8.38,0.13 8.24,0.05C8.11,-0.04 7.93,-0.01 7.84,0.13C7.84,0.13 7.36,0.85 6.09,2.28C4.93,3.59 4.36,3.92 3.48,3.17C3.28,2.99 3.04,2.88 2.78,2.82C2.7,2.8 2.61,2.79 2.53,2.79C1.97,2.76 1.37,2.99 0.89,3.43C0.37,3.89 0.06,4.5 0.01,5.15C-0.04,5.79 0.09,6.28 0.4,6.62C0.89,7.15 1.71,7.15 2.31,7.15C2.5,7.15 2.74,7.15 2.86,7.17C2.85,7.2 2.83,7.24 2.8,7.3C2.41,7.97 2.47,8.72 2.95,9.31C3.35,9.79 3.98,10.08 4.58,10.08C4.77,10.08 4.96,10.05 5.14,10Z " /><path id="路径 5" fill-rule="evenodd" style="fill:#FFEB00" transform="translate(16.758671443242537 13.173071808922163)  rotate(0 11.283221951254967 8.921175706647249)" opacity="1" d="M5.65,0.18C4.62,0.68 3.18,1.71 1.89,3.84C-0.46,7.71 -0.22,11.16 0.49,13.72C1.19,16.29 0.21,16.88 1.91,17.11C3.6,17.34 2,17.94 5.46,17.83C8.93,17.72 13.23,16.41 16.07,14.43C18.08,13.02 20.63,10.23 22.16,8.4C22.51,7.63 22.66,7.02 22.5,6.69C21.87,5.37 21.73,4.69 21.15,3.29C21.07,3.09 20.94,2.94 20.77,2.83L20.76,2.85C18.87,2.79 17.8,3.74 16.89,4.33C15.98,4.91 13.21,5.64 12.82,4.02C12.55,2.89 12.12,1.84 11.89,1.31C10.66,0.23 7.99,-0.3 5.65,0.18Z " /><path id="路径 6" fill-rule="evenodd" style="fill:#FFEB43" transform="translate(28.63916015625 14.47988281249995)  rotate(0 4.443017578124999 1.849946936032815)" opacity="1" d="M4.7,2.22C3.58,2.76 1.37,2.87 0.58,0.8C0.47,0.51 0.27,0.24 0,0C0.24,0.53 0.67,1.58 0.94,2.71C1.33,4.33 4.1,3.61 5.01,3.02C5.91,2.43 6.99,1.48 8.87,1.55L8.89,1.53C8.72,1.42 8.52,1.35 8.29,1.33C7.18,1.18 5.51,1.83 4.7,2.22Z " /><path id="路径 7" fill-rule="evenodd" style="fill:#FFC500" transform="translate(15.09549959431266 13.34580078125005)  rotate(0 11.911088093468637 9.741865560318367)" opacity="1" d="M6.7,19.44C9.03,19.8 14.18,17.98 17.54,15.73C19.8,14.22 22.76,10.53 23.82,8.23C22.3,10.05 19.74,12.84 17.73,14.25C14.89,16.24 10.59,17.55 7.13,17.65C3.66,17.76 5.27,17.16 3.57,16.93C1.88,16.7 2.85,16.11 2.15,13.55C1.45,10.98 1.2,7.54 3.55,3.66C4.84,1.53 6.28,0.5 7.31,0C7.06,0.05 6.83,0.11 6.6,0.18C6.02,0.36 5.47,0.61 4.99,0.93C2.02,2.93 0.15,7.78 0,12.33C-0.06,14.28 1.39,15.44 0.48,16.03C-0.42,16.62 0.18,17.66 1.28,18.24C2.39,18.81 4.36,19.07 6.7,19.44Z " /><path id="路径 8" fill-rule="evenodd" style="fill:#D17111" transform="translate(21.657617187499955 12.414421086868346)  rotate(0 7.637109374999998 2.308025909248602)" opacity="1" d="M10.65,3.63C8.95,3.97 9.11,2.9 7.76,1.39C6.41,-0.13 4.2,-0.03 3.16,0.02C2.12,0.07 1.08,0.11 1.08,0.11L1.04,0.07C0.4,0.57 0,1 0,1L0.04,1.12C0.27,1.05 0.51,0.98 0.75,0.94C3.09,0.46 5.76,0.98 6.99,2.07C7.26,2.3 7.46,2.57 7.57,2.86C8.35,4.93 10.57,4.82 11.69,4.28C12.49,3.9 14.16,3.24 15.27,3.39C15.22,3.22 15.06,2.93 14.83,2.58C13.46,2.52 11.9,3.4 10.65,3.63Z " /><path id="路径 9" fill-rule="evenodd" style="fill:#FFA008" transform="translate(22.700781250000052 10.859014661561226)  rotate(0 6.893017578125 2.6277830669527917)" opacity="1" d="M10.08,0.76C7.96,-0.18 3.37,-0.23 1.78,0.51C1.1,0.82 0.48,1.24 0,1.63L0.04,1.67C0.04,1.67 1.08,1.63 2.12,1.58C3.15,1.53 5.36,1.43 6.71,2.95C8.06,4.46 7.91,5.53 9.6,5.2C10.86,4.95 12.41,4.08 13.79,4.14C13.08,3.08 11.67,1.46 10.08,0.76Z " /><path id="分组 1" fill-rule="evenodd" style="fill:#91000A" transform="translate(14.80818037074318 12.885030441496117)  rotate(0 12.403950964466166 10.116517982376944)" opacity="1" d="M22.17 2.64C20.79 2.45 18.8 3.37 18.42 3.56C17.81 3.85 16.82 4 16 3.68C15.39 3.44 14.96 2.97 14.7 2.29C14.57 1.96 14.35 1.66 14.03 1.38C12.71 0.21 9.92 -0.3 7.54 0.18C7.29 0.23 7.05 0.3 6.8 0.37C6.17 0.56 5.61 0.82 5.12 1.15C3.65 2.14 2.38 3.82 1.46 6.02C0.59 8.07 0.07 10.47 0 12.78C-0.03 13.74 0.28 14.51 0.52 15.12C0.85 15.92 0.86 16.09 0.61 16.25C0.23 16.5 0.03 16.86 0.04 17.26C0.07 17.87 0.61 18.52 1.44 18.95C2.49 19.5 4.27 19.77 6.32 20.09C6.53 20.12 6.73 20.15 6.95 20.19C7.16 20.22 7.39 20.23 7.64 20.23C10.2 20.23 14.77 18.59 17.99 16.43C20.36 14.85 23.31 11.1 24.37 8.81C24.8 7.9 24.91 7.26 24.72 6.85C24.34 6.07 24.14 5.52 23.91 4.89C23.76 4.47 23.6 4.03 23.37 3.48C23.27 3.23 23.1 3.03 22.88 2.88C22.68 2.76 22.44 2.68 22.17 2.64Z M18.6694 4.0704C17.9894 4.3904 16.8394 4.6204 15.7794 4.2104C15.0294 3.9104 14.4694 3.3204 14.1594 2.4904C14.0694 2.2504 13.8894 2.0304 13.6494 1.8104C12.7694 1.0304 11.0894 0.580399 9.38944 0.580399C8.79944 0.580399 8.20944 0.630399 7.65944 0.750399C7.42944 0.800399 7.18944 0.850399 6.96944 0.920399C6.39944 1.1004 5.87944 1.3404 5.43944 1.6304C4.06944 2.5604 2.86944 4.1504 1.98944 6.2504C1.14944 8.2304 0.649435 10.5604 0.579435 12.8004C0.559435 13.6404 0.839435 14.3404 1.05944 14.9104C1.33944 15.5904 1.61944 16.2904 0.939435 16.7304C0.719435 16.8704 0.609435 17.0404 0.619435 17.2404C0.639435 17.6304 1.07944 18.1204 1.70944 18.4404C2.67944 18.9404 4.40944 19.2104 6.41944 19.5204C6.62944 19.5604 6.82944 19.5904 7.03944 19.6204C7.22944 19.6504 7.42944 19.6604 7.65944 19.6604C10.0794 19.6604 14.5894 18.0304 17.6794 15.9504C19.9294 14.4504 22.8494 10.7504 23.8594 8.5704C24.3294 7.5304 24.2394 7.1804 24.1994 7.1004C23.8094 6.2904 23.5994 5.7004 23.3694 5.0804C23.2194 4.6704 23.0694 4.2404 22.8394 3.6904C22.7794 3.5504 22.6894 3.4404 22.5694 3.3604C22.4394 3.2804 22.2894 3.2304 22.0894 3.2004C21.4994 3.1204 20.2594 3.3004 18.6694 4.0704Z " /><path id="路径 12" fill-rule="evenodd" style="fill:#91000A" transform="translate(21.372216361791978 10.56933518370918)  rotate(0 7.92775236267114 2.766357798770424)" opacity="1" d="M0.09,3.05C0.2,3.16 0.39,3.16 0.5,3.04C0.5,3.04 0.89,2.62 1.51,2.14C2.09,1.68 2.67,1.31 3.24,1.05C4.72,0.36 9.22,0.39 11.3,1.31C12.77,1.96 14.14,3.48 14.88,4.59C15.19,5.04 15.27,5.27 15.29,5.33L15.31,5.37C15.35,5.47 15.46,5.53 15.56,5.53C15.61,5.53 15.65,5.52 15.69,5.51C15.82,5.45 15.89,5.3 15.84,5.16L15.84,5.15C15.77,4.94 15.6,4.63 15.36,4.27C14.58,3.11 13.11,1.49 11.54,0.79C10.52,0.34 8.89,0.05 7.08,0.01C5.32,-0.04 3.8,0.16 3,0.53C2.4,0.81 1.77,1.2 1.16,1.69C0.51,2.2 0.1,2.63 0.08,2.65C-0.03,2.76 -0.03,2.94 0.09,3.05Z " /><g opacity="1" transform="translate(21.197164202201233 15.71764322916669)  rotate(0 6.265741338882176 6.166471354166655)"><path id="路径 13" fill-rule="evenodd" style="fill:#91000A" transform="translate(0 4.150391139888882)  rotate(0 0.9955176393394614 0.7871253935972176)" opacity="1" d="M0.02,0.24C0.01,0.32 -0.1,1.03 0.36,1.39C0.52,1.51 0.71,1.57 0.94,1.57C1.19,1.57 1.48,1.5 1.82,1.36C1.96,1.3 2.03,1.12 1.97,0.98C1.91,0.84 1.73,0.77 1.59,0.83C1.18,1.01 0.86,1.05 0.72,0.94C0.55,0.81 0.57,0.45 0.58,0.33C0.61,0.18 0.51,0.03 0.35,0C0.2,-0.02 0.05,0.08 0.02,0.24Z " /><path id="路径 14" fill-rule="evenodd" style="fill:#91000A" transform="translate(5.6080696261014715 7.0058514476919065)  rotate(0 1.1964654769539047 0.7925495365706964)" opacity="1" d="M1.27,1.59C1.56,1.59 1.88,1.5 2.23,1.33C2.37,1.26 2.43,1.09 2.37,0.95C2.3,0.81 2.13,0.75 1.98,0.81C1.55,1.03 1.2,1.06 0.97,0.93C0.63,0.75 0.58,0.26 0.58,0.25C0.56,0.1 0.42,-0.01 0.26,0C0.1,0.02 -0.01,0.16 0,0.32C0.01,0.35 0.09,1.11 0.68,1.44C0.86,1.54 1.05,1.59 1.27,1.59Z " /><path id="路径 15" fill-rule="evenodd" style="fill:#91000A" transform="translate(10.249751866566097 5.503393933350605)  rotate(0 1.140865405599127 0.6250282937413665)" opacity="1" d="M0.71,1.17C0.84,1.23 0.98,1.25 1.13,1.25C1.43,1.25 1.77,1.14 2.14,0.92C2.28,0.83 2.32,0.66 2.24,0.52C2.16,0.39 1.98,0.35 1.85,0.43C1.59,0.58 1.22,0.75 0.93,0.64C0.67,0.54 0.57,0.22 0.57,0.21C0.52,0.06 0.36,-0.03 0.21,0.01C0.06,0.05 -0.03,0.21 0.01,0.36C0.02,0.39 0.18,0.96 0.71,1.17Z " /><path id="路径 16" fill-rule="evenodd" style="fill:#91000A" transform="translate(0.34030671159504067 9.145492249975547)  rotate(0 1.1579326429169123 0.751537729178857)" opacity="1" d="M0,0.3C0,0.33 0.04,1.01 0.57,1.34C0.76,1.45 0.97,1.5 1.21,1.5C1.48,1.5 1.79,1.43 2.14,1.28C2.29,1.22 2.35,1.04 2.29,0.9C2.23,0.76 2.06,0.69 1.91,0.75C1.59,0.89 1.16,1.01 0.88,0.85C0.61,0.68 0.57,0.28 0.57,0.27C0.57,0.11 0.43,-0.01 0.27,0C0.12,0.01 -0.01,0.14 0,0.3Z " /><path id="路径 17" fill-rule="evenodd" style="fill:#91000A" transform="translate(7.284759937036011 11.213855407364779)  rotate(0 0.9981677358122731 0.5595436504842648)" opacity="1" d="M1.96,0.49C1.89,0.35 1.71,0.3 1.57,0.37C1.37,0.48 1.08,0.59 0.85,0.51C0.65,0.43 0.56,0.21 0.56,0.2C0.51,0.05 0.35,-0.03 0.2,0.01C0.05,0.07 -0.03,0.22 0.01,0.38C0.03,0.43 0.18,0.86 0.63,1.04C0.76,1.1 0.89,1.12 1.03,1.12C1.28,1.12 1.55,1.04 1.84,0.88C1.99,0.81 2.04,0.63 1.96,0.49Z " /><path id="路径 18" fill-rule="evenodd" style="fill:#91000A" transform="translate(2.1910844957154225 0)  rotate(0 0.894835076912275 0.5439127604166657)" opacity="1" d="M0.53,0.14C0.45,0.01 0.27,-0.04 0.14,0.04C0.01,0.12 -0.04,0.29 0.04,0.43C0.07,0.48 0.36,0.95 0.86,1.06C0.93,1.08 0.99,1.09 1.06,1.09C1.26,1.09 1.47,1.02 1.66,0.89C1.8,0.8 1.83,0.62 1.74,0.49C1.65,0.36 1.47,0.32 1.34,0.41C1.21,0.5 1.1,0.53 0.98,0.5C0.77,0.46 0.59,0.23 0.53,0.14Z " /></g><path id="路径 19" fill-rule="evenodd" style="fill:#91000A" transform="translate(26.86084002346483 17.797655820882778)  rotate(0 1.079614936917854 0.6403810739335922)" opacity="1" d="M0.03,0.41C0.04,0.43 0.33,1.04 0.92,1.22C1.04,1.26 1.16,1.28 1.28,1.28C1.52,1.28 1.76,1.21 2.01,1.08C2.15,0.99 2.2,0.82 2.12,0.68C2.04,0.54 1.87,0.5 1.73,0.57C1.5,0.7 1.29,0.74 1.1,0.68C0.75,0.57 0.55,0.17 0.55,0.16C0.48,0.02 0.31,-0.04 0.17,0.03C0.02,0.09 -0.04,0.27 0.03,0.41Z " /><g opacity="1" transform="translate(19.05738391042011 15.25388183593755)  rotate(0 1.2480780643211458 1.845275878906218)"><path id="路径 20" fill-rule="evenodd" style="fill:#FFFFFF" transform="translate(0 2.937779072662968)  rotate(0 0.31034087173971714 0.376386342574734)" opacity="1" d="M0.57,0.53C0.58,0.48 0.6,0.42 0.61,0.37C0.65,0.22 0.57,0.05 0.41,0.01C0.27,-0.03 0.1,0.05 0.06,0.21C0.04,0.27 0.02,0.34 0.01,0.4C-0.03,0.55 0.07,0.7 0.22,0.74C0.25,0.75 0.27,0.75 0.29,0.75C0.42,0.75 0.54,0.67 0.57,0.53Z " /><path id="路径 21" fill-rule="evenodd" style="fill:#FFFFFF" transform="translate(0.4063213929875893 0)  rotate(0 1.0449173678273511 1.3213012695312478)" opacity="1" d="M0.54,2.48C1.11,1.4 1.99,0.5 2.01,0.49C2.12,0.37 2.12,0.19 2.01,0.08C1.89,-0.03 1.71,-0.03 1.6,0.08C1.56,0.12 0.64,1.05 0.03,2.22C-0.04,2.37 0.02,2.54 0.16,2.61C0.19,2.63 0.24,2.64 0.28,2.64C0.39,2.64 0.49,2.59 0.54,2.48Z " /></g></g></g><g opacity="1" transform="translate(327 171)  rotate(0 8 8)"><mask id="bg-mask-2" fill="white"><use xlink:href="#path_2"></use></mask><g mask="url(#bg-mask-2)" ><path id="路径 1" fill-rule="evenodd" style="fill:#FFD094" transform="translate(0.1328125 2.2593750000000012)  rotate(0 6.7546875 6.8015625)" opacity="1" d="M13.29,0L0,13.26L0.22,13.48L0.22,13.47L0.98,13.6L2.98,11.56L2.38,11.32L13.51,0.21L13.29,0Z " /><path id="分组 1" fill-rule="evenodd" style="fill:#000000" transform="translate(0.032812500000000355 2.159374999999999)  rotate(0 6.8546875 6.889843750000001)" opacity="1" d="M2.6 11.39L13.66 0.36L13.71 0.31L13.39 0L0.05 13.31L0 13.36L0.32 13.68L0.35 13.64L1.1 13.78L3.2 11.63L2.6 11.39Z M1.05 13.63L2.95 11.68L2.35 11.45L13.51 0.32L13.39 0.2L0.2 13.36L0.34 13.5L1.05 13.63Z " /><path id="路径 4" fill-rule="evenodd" style="fill:#FDF0C7" transform="translate(11.806250000000002 0.10339787911290133)  rotate(0 2.04375 2.042051060443549)" opacity="1" d="M3.69 3.25C3.82 3.05 3.92 2.99 3.98 2.69C4.05 2.45 4.09 2.22 4.09 2.05C4.09 1.92 4.05 1.67 3.98 1.4C3.91 1.23 3.82 0.92 3.69 0.84C3.57 0.7 3.42 0.6 3.25 0.4C3.08 0.2 2.89 0.26 2.69 0.11C2.63475 0.098949 2.57796 0.0833183 2.51987 0.0673255C2.36768 0.0254309 2.20646 -0.018949 2.04 0.01C1.91698 0.116245 1.79396 0.100542 1.67444 0.0852861C1.58021 0.0732594 1.48816 0.06151 1.4 0.11C1.30386 0.114807 1.21003 0.191243 1.11963 0.264893C1.02196 0.344459 0.928282 0.420772 0.84 0.4C0.67 0.46 0.52 0.58 0.4 0.84C0.27 1.13 0.17 1.07 0.1 1.4C0.04 1.43 0 2.04 0 2.05C0 2.05 0.04 2.17 0.1 2.69C0.17 3.02 0.27 3.22 0.4 3.25C0.52 3.45 0.67 3.57 0.84 3.69C1.18 3.94 1.59 4.08 2.04 4.08C2.27 4.08 2.49 3.99 2.69 3.98C2.89 3.93 3.08 3.85 3.25 3.69C3.42 3.4 3.57 3.46 3.69 3.25Z" /><path id="分组 2" fill-rule="evenodd" style="fill:#000000" transform="translate(11.7359375 0.03377907580094286)  rotate(0 2.114062500000001 2.112016712099529)" opacity="1" d="M0.89 0.41C0.68 0.48 0.52 0.63 0.4 0.88L0.4 0.88C0.35 1 0.31 1.05 0.27 1.1C0.21 1.18 0.15 1.25 0.11 1.43C0.08 1.48 0.04 1.61 0 2.09C0 2.1 0 2.11 0 2.11L0.07 2.12L0 2.12L0 2.18L0.01 2.18C0.04 2.3 0.07 2.51 0.1 2.77L0.11 2.77C0.18 3.13 0.28 3.32 0.42 3.38C0.54 3.57 0.69 3.69 0.87 3.82C1.23 4.08 1.66 4.22 2.11 4.22C2.25 4.22 2.38 4.19 2.5 4.17C2.6 4.15 2.68 4.13 2.77 4.12L2.77 4.12L2.78 4.12C3.01 4.06 3.21 3.96 3.37 3.81L3.38 3.8L3.38 3.79C3.47 3.65 3.54 3.6 3.62 3.56C3.69 3.51 3.76 3.47 3.82 3.36C3.86 3.3 3.89 3.26 3.92 3.21C4 3.1 4.07 3 4.12 2.78C4.19 2.53 4.23 2.3 4.23 2.12C4.23 1.97 4.19 1.72 4.12 1.46L4.12 1.45C4.11 1.42 4.1 1.39 4.09 1.36C4.02 1.18 3.93 0.95 3.81 0.86C3.75 0.79 3.69 0.74 3.63 0.68C3.55 0.61 3.47 0.53 3.37 0.43C3.27 0.3 3.15 0.26 3.03 0.23C2.95 0.21 2.88 0.18 2.8 0.13L2.79 0.12L2.77 0.11C2.72 0.1 2.66 0.09 2.6 0.07C2.45 0.03 2.28 -0.02 2.1 0.01L2.08 0.01L2.07 0.03C1.97 0.11 1.87 0.1 1.76 0.08C1.66 0.07 1.56 0.06 1.45 0.11C1.33 0.12 1.23 0.21 1.14 0.28C1.06 0.35 0.98 0.41 0.92 0.4L0.9 0.4L0.89 0.41Z M1.49063 0.250353L1.47063 0.250353C1.39062 0.250353 1.31062 0.330353 1.22063 0.390353C1.13063 0.470353 1.02062 0.550353 0.910625 0.540353C0.750625 0.610353 0.630625 0.730353 0.530625 0.940353C0.470625 1.07035 0.420625 1.14035 0.370625 1.19035C0.320625 1.26035 0.280625 1.31035 0.240625 1.49035L0.230625 1.52035L0.220625 1.53035C0.210625 1.56035 0.170625 1.67035 0.140625 2.10035L0.140625 2.11035C0.170625 2.22035 0.210625 2.45035 0.240625 2.75035C0.340625 3.18035 0.450625 3.24035 0.480625 3.25035L0.510625 3.26035L0.530625 3.28035C0.640625 3.47035 0.770625 3.57035 0.950625 3.70035C1.29062 3.95035 1.69062 4.08035 2.12063 4.08035C2.23062 4.08035 2.35063 4.06035 2.47062 4.03035C2.56063 4.01035 2.66062 3.99035 2.75062 3.98035C2.95062 3.93035 3.12063 3.84035 3.27063 3.72035C3.36063 3.55035 3.46062 3.49035 3.54063 3.44035C3.60063 3.40035 3.65062 3.37035 3.70062 3.28035C3.74062 3.22035 3.77063 3.18035 3.80063 3.13035C3.88063 3.03035 3.94062 2.94035 3.98062 2.75035L3.99062 2.74035C4.05062 2.51035 4.09062 2.29035 4.09062 2.12035C4.09062 1.99035 4.05062 1.74035 3.99062 1.49035C3.98062 1.47035 3.97062 1.44035 3.95062 1.41035C3.90062 1.26035 3.81063 1.03035 3.72062 0.970353L3.72062 0.970353L3.71062 0.960353C3.66062 0.900353 3.60063 0.840353 3.53063 0.780353C3.45062 0.710353 3.36063 0.630353 3.27063 0.520353C3.18062 0.420353 3.09063 0.390353 2.99062 0.360353C2.91062 0.340353 2.82063 0.310353 2.73062 0.250353C2.67062 0.240353 2.61063 0.220353 2.56063 0.200353C2.42062 0.160353 2.28063 0.130353 2.14062 0.150353C2.00063 0.260353 1.85063 0.240353 1.74063 0.230353C1.65062 0.210353 1.57062 0.200353 1.50063 0.240353L1.49063 0.250353Z " /><path id="路径 7" fill-rule="evenodd" style="fill:#FFC071" transform="translate(8.814198526787191 2.186250289159082)  rotate(0 2.4677736049118026 2.5111884219663896)" opacity="1" d="M0.46,1.95C1.08,2.63 2.36,4.05 2.92,4.66C2.95,4.7 2.98,4.73 3,4.76C3.11,4.87 3.2,5.05 3.37,5.02C3.5,4.99 3.62,4.96 3.73,4.92C3.79,4.9 3.84,4.87 3.89,4.85C4.36,4.61 4.74,4.25 4.91,3.74C4.93,3.7 4.94,3.65 4.93,3.59C4.92,3.45 4.78,3.35 4.69,3.25C4.66,3.22 4.63,3.18 4.6,3.15C4.18,2.68 3.33,1.75 2.68,1.03C2.65,0.99 2.62,0.96 2.6,0.93C2.35,0.65 2.14,0.29 1.84,0.1C1.8,0.08 1.75,0.06 1.71,0.04C1.08,-0.16 0.62,0.46 0.15,0.82C0.07,0.87 0.09,1 0.1,1.1C0.12,1.18 0,1.25 0,1.33C-0.03,1.56 0.22,1.65 0.35,1.82C0.38,1.86 0.42,1.9 0.46,1.95Z " /><path id="分组 3" fill-rule="evenodd" style="fill:#000000" transform="translate(8.743480272421712 2.115947602841679)  rotate(0 2.5388776334447787 2.58108869857916)" opacity="1" d="M0.36 1.93L3.02 4.88L3.03 4.88C3.05 4.9 3.07 4.93 3.09 4.96C3.17 5.05 3.26 5.16 3.4 5.16C3.42 5.16 3.44 5.16 3.46 5.16C3.6 5.13 3.72 5.1 3.83 5.06C3.89 5.03 3.95 5.01 4 4.98C4.53 4.71 4.88 4.33 5.05 3.84C5.07 3.79 5.08 3.72 5.08 3.65C5.06 3.52 4.96 3.42 4.88 3.33C4.85 3.31 4.83 3.29 4.81 3.27C4.79 3.24 4.76 3.21 4.73 3.18L2.72 0.96C2.65 0.87 2.57 0.78 2.5 0.68C2.34 0.47 2.17 0.25 1.95 0.12C1.9 0.09 1.85 0.06 1.8 0.04L1.8 0.04C1.28 -0.12 0.86 0.24 0.49 0.57C0.38 0.67 0.28 0.76 0.18 0.83C0.06 0.91 0.09 1.09 0.1 1.18L0.1 1.18C0.11 1.19 0.08 1.22 0.07 1.25C0.04 1.29 0 1.33 0 1.39C-0.02 1.59 0.11 1.7 0.23 1.8C0.28 1.85 0.33 1.89 0.36 1.93Z M0.258811 0.951726C0.208811 0.981726 0.228811 1.11173 0.238811 1.16173C0.248811 1.23173 0.208811 1.29173 0.178811 1.33173C0.158811 1.35173 0.138811 1.38173 0.138811 1.40173L0.138811 1.41173C0.128811 1.52173 0.198811 1.59173 0.318811 1.69173C0.368811 1.74173 0.428811 1.79173 0.468811 1.84173L3.12881 4.78173C3.14881 4.81173 3.17881 4.84173 3.19881 4.87173C3.28881 4.97173 3.33881 5.03173 3.43881 5.02173C3.55881 4.99173 3.67881 4.96173 3.77881 4.92173C3.82881 4.90173 3.87881 4.88173 3.92881 4.85173C4.42881 4.60173 4.75881 4.24173 4.91881 3.79173L4.91881 3.78173L4.91881 3.78173C4.92881 3.75173 4.93881 3.71173 4.93881 3.67173C4.91881 3.58173 4.84881 3.51173 4.77881 3.43173C4.74881 3.41173 4.72881 3.39173 4.70881 3.36173C4.67881 3.34173 4.65881 3.30173 4.61881 3.27173L4.61881 3.27173L2.61881 1.05173C2.53881 0.961726 2.45881 0.861726 2.38881 0.771726C2.22881 0.561725 2.06881 0.351726 1.86881 0.231726C1.83881 0.211726 1.78881 0.191726 1.74881 0.171726C1.30881 0.0317255 0.938811 0.361726 0.578811 0.681726C0.478811 0.771726 0.368811 0.871726 0.258811 0.951726L0.258811 0.951726Z " /><path id="路径 10" fill-rule="evenodd" style="fill:#FFD4BF" transform="translate(5.7265625 5.407647492808632)  rotate(0 2.332886190581989 2.418820169605533)" opacity="1" d="M4.58 1.6C4.55 1.67 4.53 1.74 4.52 1.83C4.52 1.87 4.51 1.91 4.5 1.95C4.49 2.07 4.48 2.19 4.48 2.31L4.48 2.39C4.48 2.33 4.47 2.27 4.47 2.21C4.47 2.3 4.47 2.4 4.48 2.5C4.48 2.5 4.47253 2.5 4.4705 2.49354C4.49 2.63203 4.48992 2.7511 4.48 2.88C4.48 2.93 4.47 2.99 4.47 3.04L4.47 3C4.46 3.02 4.46 3.04 4.45 3.05L4.45 3.04L4.42 3.19C4.37 3.45 4.39 3.71 4.42 3.97L4.42 3.94C4.4387 3.99611 4.43797 4.05611 4.43719 4.12L4.43719 4.12002L4.43719 4.12003C4.43672 4.1586 4.43624 4.19859 4.44 4.24L4.44 4.39C4.43 4.53 4.42 4.67 4.4 4.81C4.4 4.8 4.4 4.8 4.39 4.8C4.39 4.80526 4.38723 4.79945 4.38188 4.78821C4.36688 4.75672 4.33159 4.68263 4.28 4.69C4.27 4.67 4.27 4.64 4.25 4.63C4.19 4.56 4.14 4.54 4.09 4.46C4.08208 4.45604 4.06947 4.45835 4.05649 4.46072C4.03668 4.46435 4.01604 4.46812 4.01 4.45C3.96 4.38 3.91 4.33 3.87 4.27C3.84 4.23 3.8 4.18 3.76 4.13C3.69 4.06 3.6 4 3.52 3.91C3.43 3.82 3.34 3.68 3.25 3.62C3.16 3.47 3.06 3.33 2.96 3.31C2.82 3.17 2.66 2.98 2.51 2.81C2.47 2.78 2.43 2.75 2.39 2.7C2.19 2.46 1.99 2.23 1.79 1.99C1.76 1.96 1.73 1.92 1.7 1.89C1.41 1.57 1.03 1.29 0.9 0.83C0.87 0.69 0.69 0.72 0.57 0.69C0.42 0.64 0.38 0.44 0.25 0.37C0.22 0.33 0.19 0.29 0.15 0.26C0.13 0.18 0.1 0.14 0.09 0.11C0.03 0.02 0 0.1 0 0.1L0 0.07C0 -0.05 0.1 0 0.26 0.08C0.297253 0.0148073 0.334506 0.0450247 0.379837 0.0817945C0.38318 0.0845059 0.386566 0.087253 0.39 0.09C0.41 0.12 0.46 0.13 0.47 0.13C0.626435 -0.0264351 0.75974 0.0530596 0.898232 0.135648C0.963359 0.174486 1.02963 0.214008 1.1 0.23C1.16532 0.247815 1.23417 0.20921 1.30654 0.168628C1.35604 0.140869 1.4072 0.112185 1.46 0.1C1.5 0.1 1.54 0.1 1.58 0.11C1.65 0.12 1.73 0.14 1.81 0.15C2.14 0.2 2.47 0.21 2.79 0.19C2.93307 0.233356 3.07239 0.201523 3.2055 0.171108C3.37941 0.131371 3.54272 0.0940533 3.69 0.23C3.82318 0.200404 3.94663 0.22677 4.05675 0.25029C4.16987 0.27445 4.26892 0.295605 4.35 0.25C4.51 0.2 4.61 0.26 4.61 0.26L4.61 0.37C4.65942 0.765355 4.70884 1.18025 4.59411 1.57606C4.59 1.58066 4.59 1.58256 4.59 1.59L4.58 1.6ZM4.59194 1.58347C4.5913 1.58564 4.59065 1.58782 4.59 1.59C4.59 1.58717 4.5908 1.58515 4.59194 1.58347ZM4.59194 1.58347C4.59485 1.5792 4.6 1.57717 4.6 1.57C4.59744 1.57256 4.59553 1.57447 4.59411 1.57606C4.5934 1.57853 4.59267 1.581 4.59194 1.58347ZM4.4 4.81C4.41 4.82 4.4 4.85 4.4 4.83L4.4 4.81ZM4.48 2.5L4.48 2.55C4.49 2.5 4.49 2.44 4.48 2.39L4.48 2.5Z" /><path id="分组 4" fill-rule="evenodd" style="fill:#000000" transform="translate(5.654687499999994 5.340093181351005)  rotate(0 2.4036459007384514 2.4877659093244975)" opacity="1" d="M4.47 4.98C4.47 4.98 4.47 4.98 4.47 4.98Z M4.65 2.03L4.65 2.02C4.65 1.99 4.66 1.95 4.67 1.92L4.67 1.91C4.67 1.88 4.67 1.86 4.67 1.84L4.72 1.7C4.73 1.69 4.74 1.67 4.74 1.64L4.74 1.63C4.85 1.24 4.81 0.84 4.75 0.43L4.75 0.33C4.75 0.3 4.72 0.28 4.71 0.27L4.68 0.25L4.67 0.25C4.62 0.23 4.52 0.22 4.4 0.26L4.39 0.26L4.39 0.26C4.33 0.29 4.24 0.27 4.14 0.25C4.04 0.23 3.92 0.2 3.78 0.22C3.61 0.09 3.42 0.13 3.26 0.17C3.13 0.2 3.01 0.23 2.88 0.19L2.87 0.19L2.86 0.19C2.52 0.22 2.2 0.2 1.9 0.15L1.89 0.15C1.84 0.14 1.8 0.13 1.75 0.13C1.72 0.12 1.69 0.11 1.65 0.11C1.6 0.1 1.56 0.1 1.52 0.11L1.51 0.11C1.45 0.12 1.39 0.15 1.34 0.18C1.28 0.21 1.22 0.24 1.18 0.23L1.18 0.23C1.12 0.22 1.07 0.18 1.01 0.15C0.88 0.07 0.71 -0.03 0.52 0.12C0.52 0.12 0.52 0.12 0.52 0.12L0.51 0.11L0.5 0.1C0.46 0.07 0.41 0.03 0.35 0.05C0.34 0.05 0.32 0.06 0.31 0.07C0.19 0.01 0.12 -0.02 0.06 0.02C0.04 0.03 0.03 0.04 0.02 0.05C0.01 0.06 0 0.08 0 0.11L0 0.16L0 0.22L0.05 0.23C0.07 0.23 0.09 0.23 0.1 0.23C0.11 0.25 0.13 0.28 0.15 0.35L0.16 0.37L0.18 0.38C0.21 0.4 0.23 0.43 0.25 0.47L0.27 0.49L0.28 0.5C0.33 0.52 0.36 0.57 0.4 0.63C0.45 0.7 0.52 0.79 0.62 0.82L0.62 0.82C0.66 0.83 0.7 0.84 0.74 0.84C0.85 0.85 0.89 0.87 0.9 0.92L0.9 0.92C1.01 1.29 1.27 1.55 1.52 1.8C1.59 1.86 1.65 1.93 1.72 2L1.8 2.1C1.9 2.21 1.99 2.33 2.09 2.43C2.19 2.56 2.3 2.69 2.41 2.82L2.41 2.82C2.45 2.87 2.49 2.9 2.53 2.93C2.58 2.98 2.63 3.04 2.67 3.09C2.78 3.21 2.88 3.33 2.99 3.43L3 3.44L3.02 3.45C3.1 3.46 3.21 3.64 3.26 3.73L3.27 3.74L3.28 3.75C3.34 3.78 3.39 3.85 3.45 3.92C3.48 3.96 3.51 4 3.54 4.03L3.54 4.03C3.59 4.08 3.64 4.12 3.68 4.16C3.72 4.18 3.75 4.21 3.78 4.24C3.82 4.29 3.85 4.33 3.89 4.38C3.91 4.42 3.94 4.45 3.97 4.48C3.99 4.5 4 4.53 4.02 4.55C4.04 4.58 4.08 4.6 4.12 4.59C4.16 4.64 4.19 4.66 4.22 4.69C4.24 4.7 4.25 4.72 4.27 4.73C4.28 4.74 4.28 4.74 4.28 4.75C4.28 4.76 4.28 4.78 4.3 4.79L4.32 4.83L4.35 4.82C4.36 4.83 4.37 4.84 4.39 4.88C4.4 4.89 4.4 4.9 4.4 4.9C4.4 4.95 4.44 4.98 4.47 4.98C4.51 4.98 4.55 4.95 4.55 4.9C4.55 4.89 4.55 4.89 4.55 4.88C4.56 4.75 4.57 4.61 4.58 4.47C4.58 4.42 4.58 4.37 4.58 4.31L4.58 4.31C4.58 4.27 4.58 4.24 4.58 4.21C4.58 4.14 4.58 4.07 4.55 3.99L4.55 3.98C4.53 3.76 4.52 3.52 4.56 3.28C4.56 3.24 4.57 3.21 4.58 3.17C4.59 3.15 4.6 3.14 4.6 3.12L4.61 3.12L4.61 3.1C4.62 2.95 4.63 2.8 4.62 2.64L4.64 2.64L4.63 2.59C4.63 2.55 4.63 2.51 4.62 2.47L4.62 2.38C4.62 2.28 4.63 2.16 4.65 2.03Z M4.46594 3.04848C4.46594 3.00848 4.46594 2.96848 4.48594 2.92848C4.48594 2.80848 4.48594 2.69848 4.47594 2.57848C4.46594 2.56848 4.46594 2.54848 4.46594 2.53848L4.47594 2.52848C4.46594 2.44848 4.46594 2.35848 4.46594 2.26848L4.48594 2.26848L4.48594 2.05848L4.49594 2.05848C4.49594 2.04848 4.50594 2.02848 4.50594 2.00848L4.50594 1.99848C4.51594 1.95848 4.51594 1.92848 4.52594 1.88848C4.53594 1.80848 4.54594 1.72848 4.58594 1.63848C4.58594 1.63848 4.58594 1.62848 4.58594 1.62848C4.70594 1.24848 4.66594 0.848483 4.60594 0.438483L4.60594 0.428483L4.60594 0.368483C4.57594 0.358483 4.52594 0.358483 4.44594 0.378483C4.34594 0.428483 4.22594 0.408483 4.11594 0.378483C4.00594 0.358483 3.89594 0.328483 3.77594 0.358483L3.74594 0.368483L3.71594 0.338483C3.58594 0.228483 3.45594 0.258483 3.28594 0.298483C3.15594 0.328483 3.00594 0.368483 2.85594 0.318483C2.51594 0.348483 2.18594 0.338483 1.87594 0.278483C1.82594 0.278483 1.76594 0.268483 1.72594 0.258483C1.68594 0.248483 1.66594 0.248483 1.63594 0.238483C1.59594 0.238483 1.56594 0.238483 1.53594 0.238483C1.49594 0.248483 1.44594 0.278483 1.40594 0.298483C1.32594 0.338483 1.23594 0.388483 1.14594 0.358483C1.06594 0.348483 0.995937 0.308483 0.935938 0.258483C0.785938 0.178483 0.705938 0.138483 0.585938 0.248483L0.565938 0.268483L0.535938 0.268483C0.505938 0.268483 0.445938 0.248483 0.405937 0.198483C0.395938 0.198483 0.385938 0.188483 0.385938 0.178483L0.345937 0.238483L0.285938 0.208483C0.275937 0.198483 0.255938 0.188483 0.235938 0.178483C0.245938 0.208483 0.265938 0.238483 0.275937 0.278483C0.315938 0.308483 0.335938 0.348483 0.365938 0.378483C0.425938 0.418483 0.465937 0.478483 0.515938 0.538483C0.555938 0.598483 0.605937 0.658483 0.655937 0.678483C0.685938 0.688483 0.715937 0.688483 0.745937 0.698483C0.845937 0.708483 0.995937 0.728483 1.03594 0.878483C1.13594 1.21848 1.37594 1.45848 1.61594 1.68848C1.68594 1.75848 1.75594 1.82848 1.81594 1.89848L1.82594 1.90848C1.85594 1.93848 1.88594 1.96848 1.90594 2.00848C2.00594 2.11848 2.09594 2.22848 2.18594 2.33848C2.29594 2.45848 2.40594 2.58848 2.51594 2.71848C2.55594 2.75848 2.58594 2.79848 2.62594 2.81848L2.62594 2.82848C2.67594 2.87848 2.72594 2.93848 2.77594 2.99848C2.87594 3.10848 2.97594 3.21848 3.06594 3.30848C3.18594 3.34848 3.28594 3.48848 3.37594 3.62848C3.43594 3.67848 3.50594 3.75848 3.55594 3.82848C3.58594 3.85848 3.61594 3.89848 3.63594 3.92848C3.68594 3.96848 3.72594 4.00848 3.77594 4.03848C3.80594 4.06848 3.84594 4.10848 3.87594 4.13848L3.88594 4.13848L3.88594 4.14848C3.92594 4.19848 3.95594 4.23848 3.99594 4.27848L4.00594 4.28848C4.02594 4.31848 4.04594 4.35848 4.07594 4.38848C4.08594 4.40848 4.10594 4.42848 4.12594 4.44848C4.14594 4.43848 4.18594 4.43848 4.20594 4.46848L4.21594 4.47848L4.22594 4.47848C4.24594 4.52848 4.27594 4.54848 4.30594 4.56848C4.32594 4.58848 4.34594 4.60848 4.37594 4.62848C4.38594 4.65848 4.39594 4.67848 4.40594 4.68848C4.40594 4.69848 4.41594 4.69848 4.42594 4.69848C4.42594 4.61848 4.43594 4.53848 4.43594 4.44848C4.43594 4.40848 4.44594 4.35848 4.44594 4.30848C4.43594 4.26848 4.43594 4.23848 4.43594 4.19848C4.43594 4.14848 4.43594 4.08848 4.42594 4.04848L4.41594 4.04848C4.39594 3.78848 4.37594 3.51848 4.41594 3.24848C4.42594 3.19848 4.43594 3.13848 4.45594 3.08848L4.46594 3.04848Z " /><path id="路径 14" fill-rule="evenodd" style="fill:#E0803A" transform="translate(3.665263708704831 7.22545958085192)  rotate(0 2.610815819854885 2.535707709574039)" opacity="1" d="M3.75,0.96C3.72,0.92 3.69,0.89 3.66,0.86C3.4,0.58 3.12,0.33 2.84,0.05C2.6,-0.16 2.37,0.32 2.13,0.42C2.1,0.47 2.06,0.51 2.03,0.55C1.63,1.04 1.18,1.46 0.67,1.85C0.47,2 0.24,2.11 0.06,2.28C0.03,2.31 0,2.36 0,2.41C0,2.46 0.01,2.51 0.05,2.55C0.05,2.55 0.99,3.59 1.66,4.34C1.69,4.37 1.72,4.4 1.75,4.43C1.94,4.67 2.22,4.82 2.46,5.01C2.5,5.04 2.54,5.07 2.59,5.07C2.85,4.97 2.99,4.73 3.23,4.61C3.27,4.58 3.31,4.55 3.35,4.52C3.71,4.21 4.01,3.85 4.32,3.49C4.36,3.45 4.41,3.41 4.45,3.37C4.67,3.18 4.9,3 5.16,2.84C5.21,2.79 5.24,2.73 5.2,2.67C5.04,2.41 4.68,2.34 4.56,2.06C4.43,1.79 4.32,1.52 4.09,1.32C4.06,1.29 4.03,1.26 4,1.23C3.92,1.14 3.83,1.05 3.75,0.96Z " /><path id="分组 5" fill-rule="evenodd" style="fill:#000000" transform="translate(3.5950510016126067 7.151857413494867)  rotate(0 2.6812226657230935 2.6068837932525666)" opacity="1" d="M2.67 5.21L2.69 5.21C2.83 5.15 2.94 5.05 3.05 4.95C3.14 4.87 3.23 4.8 3.33 4.75L3.34 4.74L3.34 4.74C3.38 4.71 3.43 4.67 3.47 4.64C3.81 4.35 4.1 4.02 4.39 3.67L4.44 3.61C4.48 3.57 4.53 3.53 4.57 3.5C4.78 3.3 5.02 3.12 5.26 2.97L5.27 2.97L5.28 2.96C5.37 2.87 5.39 2.79 5.33 2.7C5.25 2.57 5.12 2.48 5 2.4C4.87 2.32 4.75 2.24 4.7 2.11L4.68 2.06C4.55 1.8 4.43 1.55 4.2 1.35L3.78 0.88C3.62 0.71 3.46 0.55 3.29 0.39C3.18 0.29 3.07 0.18 2.96 0.08L2.96 0.07C2.75 -0.11 2.56 0.09 2.4 0.24C2.32 0.32 2.25 0.4 2.17 0.43L2.16 0.44L2.15 0.45C2.11 0.5 2.08 0.54 2.04 0.58C1.68 1.04 1.25 1.44 0.69 1.87C0.62 1.92 0.54 1.97 0.46 2.02C0.33 2.11 0.2 2.19 0.09 2.3C0.03 2.35 0 2.41 0 2.48C0 2.55 0.02 2.62 0.07 2.67L1.77 4.55C1.91 4.73 2.1 4.86 2.28 4.98C2.35 5.03 2.42 5.08 2.49 5.13C2.53 5.18 2.59 5.21 2.66 5.21L2.67 5.21Z M4.53918 2.12127C4.42918 1.86127 4.31918 1.62127 4.10918 1.45127L4.09918 1.44127L3.67918 0.971274C3.51918 0.801274 3.35918 0.651274 3.18918 0.491274C3.07918 0.391274 2.96918 0.281274 2.85918 0.171274C2.76918 0.0912744 2.66918 0.161274 2.48918 0.341274C2.41918 0.421274 2.33918 0.501274 2.24918 0.551274C2.20918 0.591274 2.17918 0.631274 2.14918 0.671274C1.77918 1.12127 1.33918 1.55127 0.779177 1.98127C0.699177 2.04127 0.619177 2.09127 0.539177 2.14127C0.409177 2.22127 0.289177 2.30127 0.179177 2.40127L0.179177 2.40127C0.159177 2.42127 0.139177 2.45127 0.139177 2.49127C0.139177 2.52127 0.149177 2.55127 0.169177 2.58127L1.86918 4.46127L1.86918 4.46127C1.99918 4.62127 2.16918 4.74127 2.34918 4.86127C2.41918 4.91127 2.49918 4.97127 2.56918 5.02127L2.57918 5.03127L2.57918 5.03127C2.59918 5.05127 2.61918 5.06127 2.64918 5.07127C2.75918 5.02127 2.85918 4.94127 2.94918 4.85127C3.04918 4.77127 3.13918 4.68127 3.25918 4.62127C3.29918 4.59127 3.33918 4.56127 3.37918 4.53127C3.70918 4.25127 3.98918 3.92127 4.27918 3.58127L4.33918 3.51127C4.37918 3.47127 4.42918 3.43127 4.46918 3.39127C4.68918 3.19127 4.92918 3.01127 5.17918 2.85127C5.22918 2.80127 5.21918 2.79127 5.20918 2.77127C5.13918 2.67127 5.02918 2.59127 4.91918 2.52127C4.77918 2.42127 4.63918 2.33127 4.56918 2.16127L4.53918 2.12127Z " /><path id="路径 17" fill-rule="evenodd" style="fill:#CD5B00" transform="translate(12.537406449140015 1.11901741574692)  rotate(0 1.6450764548887502 1.5265954012983323)" opacity="1" d="M0.1,1.61C-0.23,2.27 0.33,2.57 0.72,2.89C1.34,3.4 2.65,2.57 2.89,2.24C3.82,0.97 2.91,-0.08 2.25,0C1.74,0.07 0.51,0.79 0.1,1.61Z " /></g></g></g></svg>