<svg xmlns="http://www.w3.org/2000/svg" xmlns:xlink="http://www.w3.org/1999/xlink" width="150" height="150" viewBox="0 0 150 150" fill="none"><defs><path id="path_0"
        transform="translate(0 0) rotate(0 75 75)"
        d="M16,150L134,150C142.84,150 150,142.84 150,134L150,16C150,7.16 142.84,0 134,0L16,0C7.16,0 0,7.16 0,16L0,134C0,142.84 7.16,150 16,150Z" /><filter id="filter_2" x="0" y="0" width="150" height="150" filterUnits="userSpaceOnUse" color-interpolation-filters="sRGB"></filter></defs><g opacity="1" transform="translate(0 0)  rotate(90 75 75)"><rect stroke="#000000" stroke-width="1" stroke-opacity="1" /><rect x="0" y="0" width="150" height="150" rx="0" /><mask id="mask-0" fill="white"><use xlink:href="#path_0"></use></mask><g mask="url(#mask-0)"></g><g mask="url(#mask-0)"><g opacity="0.12" transform="translate(36.153083662532254 -14.851293808510489)  rotate(-90 69.34910507298885 61.502188735521514)"><path id="圆形 1" fill-rule="evenodd" style="fill:#FFCB6B" transform="translate(5.90694234074422 74.4514974412252)  rotate(-41.12109459695092 20.464452197514124 16.657861327980214)" opacity="1" d="M20.46,0C9.16,0 0,7.46 0,16.66C0,25.86 9.16,33.32 20.46,33.32C31.77,33.32 40.93,25.86 40.93,16.66C40.93,7.46 31.77,0 20.46,0Z " /><path  id="圆形 1" style="stroke:#432200; stroke-width:2.0524780000000002; stroke-opacity:1; stroke-dasharray:0 0" transform="translate(5.90694234074422 74.4514974412252)  rotate(-41.12109459695092 20.464452197514124 16.657861327980214)" d="M20.46,0C9.16,0 0,7.46 0,16.66C0,25.86 9.16,33.32 20.46,33.32C31.77,33.32 40.93,25.86 40.93,16.66C40.93,7.46 31.77,0 20.46,0Z " /><path id="圆形 1" fill-rule="evenodd" style="fill:#FFCB6B" transform="translate(91.86236341020525 74.42715362974937)  rotate(41.12109459695092 20.464452197514124 16.657861327980214)" opacity="1" d="M20.46,33.32C31.77,33.32 40.93,25.86 40.93,16.66C40.93,7.46 31.77,0 20.46,0C9.16,0 0,7.46 0,16.66C0,25.86 9.16,33.32 20.46,33.32Z " /><path  id="圆形 1" style="stroke:#432200; stroke-width:2.0524780000000002; stroke-opacity:1; stroke-dasharray:0 0" transform="translate(91.86236341020525 74.42715362974937)  rotate(41.12109459695092 20.464452197514124 16.657861327980214)" d="M20.46,33.32C31.77,33.32 40.93,25.86 40.93,16.66C40.93,7.46 31.77,0 20.46,0C9.16,0 0,7.46 0,16.66C0,25.86 9.16,33.32 20.46,33.32Z " /><path id="并集" fill-rule="evenodd" style="fill:#FFCB6B" transform="translate(18.124767334483415 22.395044675767767)  rotate(0 51.25468768685638 47.25589873717474)" opacity="1" d="M3.67,50.81C-0.45,55.27 -0.35,60.65 0.41,66.66C2.6,84.08 22.8,94.51 51.04,94.51C79.28,94.51 99.43,81.12 102.18,65.04C102.96,60.48 102.5,56.13 99.27,52.25C99.76,50.12 100.12,47.94 100.35,45.73C100.35,15.24 80.53,0 50.05,0C21.59,0 0.41,15.75 3.3,47.35C3.39,48.52 3.3,50.81 3.67,50.81Z " /><path  id="并集" style="stroke:#432200; stroke-width:2.0524780000000002; stroke-opacity:1; stroke-dasharray:0 0" transform="translate(18.124767334483415 22.395044675767767)  rotate(0 51.25468768685638 47.25589873717474)" d="M3.67,50.81C-0.45,55.27 -0.35,60.65 0.41,66.66C2.6,84.08 22.8,94.51 51.04,94.51C79.28,94.51 99.43,81.12 102.18,65.04C102.96,60.48 102.5,56.13 99.27,52.25C99.76,50.12 100.12,47.94 100.35,45.73C100.35,15.24 80.53,0 50.05,0C21.59,0 0.41,15.75 3.3,47.35C3.39,48.52 3.3,50.81 3.67,50.81Z " /><path id="圆形 2" fill-rule="evenodd" style="fill:#FFFFFF" transform="translate(33.53644426509175 43.69900313330138)  rotate(0 15.751966245724914 13.72221974528362)" opacity="1" d="M28.5,25.41C31.68,22.9 31.5,19.24 31.5,15.24C31.5,7.67 26,0 16.5,0C7,0 0,7.67 0,15.24C0,19.24 1.32,22.9 4.5,25.41C7.35,27.65 11.32,27.44 15.5,27.44C19.68,27.44 25.65,27.65 28.5,25.41Z " /><path id="圆形 3" fill-rule="evenodd" style="fill:#503C21" transform="translate(46.74777079376427 54.87781788833197)  rotate(0 6.605663264336254 6.605663264336254)" opacity="1" d="M6.61,0C2.96,0 0,2.96 0,6.61C0,10.25 2.96,13.21 6.61,13.21C10.25,13.21 13.21,10.25 13.21,6.61C13.21,2.96 10.25,0 6.61,0Z " /><path id="圆形 2" fill-rule="evenodd" style="fill:#FFFFFF" transform="translate(73.17042385110928 43.69900313330138)  rotate(0 15.751966245724914 13.72221974528362)" opacity="1" d="M28.5,25.41C31.68,22.9 31.5,19.24 31.5,15.24C31.5,7.67 26,0 16.5,0C7,0 0,7.67 0,15.24C0,19.24 1.32,22.9 4.5,25.41C7.35,27.65 11.32,27.44 15.5,27.44C19.68,27.44 25.65,27.65 28.5,25.41Z " /><path id="圆形 3" fill-rule="evenodd" style="fill:#503C21" transform="translate(78.84113169957027 54.918468123804786)  rotate(0 6.605663264336254 6.605663264336254)" opacity="1" d="M6.61,0C2.96,0 0,2.96 0,6.61C0,10.25 2.96,13.21 6.61,13.21C10.25,13.21 13.21,10.25 13.21,6.61C13.21,2.96 10.25,0 6.61,0Z " /><path id="圆形 3" fill-rule="evenodd" style="fill:#FFFFFF" transform="translate(49.79653845422715 56.91032966197389)  rotate(0 1.0162558868209624 1.0162558868209624)" opacity="1" d="M1.02,0C0.45,0 0,0.45 0,1.02C0,1.58 0.45,2.03 1.02,2.03C1.58,2.03 2.03,1.58 2.03,1.02C2.03,0.45 1.58,0 1.02,0Z " /><path id="圆形 3" fill-rule="evenodd" style="fill:#FFFFFF" transform="translate(81.88989936003316 56.95097989744672)  rotate(0 1.0162558868209624 1.0162558868209624)" opacity="1" d="M1.02,0C0.45,0 0,0.45 0,1.02C0,1.58 0.45,2.03 1.02,2.03C1.58,2.03 2.03,1.58 2.03,1.02C2.03,0.45 1.58,0 1.02,0Z " /><path id="路径 2" fill-rule="evenodd" style="fill:#C26523" transform="translate(53.98800148913876 0)  rotate(0 7.804892192046724 13.401016593951878)" opacity="1" d="M11.64,17.31C14.24,25.04 12.83,28.56 13.67,25.95C18.76,10.2 12.56,3.98 9.61,2.07C0.97,-3.52 -1.06,3.59 0.46,7.15C2.5,11.72 9.87,12.04 11.64,17.31Z " /><path  id="路径 2" style="stroke:#332105; stroke-width:2.0524780000000002; stroke-opacity:1; stroke-dasharray:0 0" transform="translate(53.98800148913876 0)  rotate(0 7.804892192046724 13.401016593951878)" d="M11.64,17.31C14.24,25.04 12.83,28.56 13.67,25.95C18.76,10.2 12.56,3.98 9.61,2.07C0.97,-3.52 -1.06,3.59 0.46,7.15C2.5,11.72 9.87,12.04 11.64,17.31Z " /><path  id="路径 1" style="stroke:#43330D; stroke-width:2.0524780000000002; stroke-opacity:1; stroke-dasharray:0 0" transform="translate(59.02464006870576 116.39871420670677)  rotate(0 0.5081279434104812 3.302831632168127)" d="M0,0L0,6.61 " /><path  id="路径 1" style="stroke:#43330D; stroke-width:2.0524780000000002; stroke-opacity:1; stroke-dasharray:0 0" transform="translate(77.82537397489355 116.90684215011726)  rotate(0 0.5081279434104812 2.794703688757646)" d="M0,0L0,5.59 " /><path id="三角形 1" fill-rule="evenodd" style="fill:#C26523" transform="translate(60.76193947302533 70.12165619064639)  rotate(-180 8.1300470945677 8.996612683931566)" opacity="1" d="M8.13,17.99L8.13,17.99C9.91,17.99 11.57,17.08 12.54,15.59C13.5,14.09 13.64,12.2 12.91,10.58L10.94,6.21C10.44,5.1 9.34,4.39 8.13,4.39C6.92,4.39 5.82,5.1 5.32,6.21L3.35,10.58C2.62,12.2 2.76,14.09 3.72,15.59C4.69,17.08 6.35,17.99 8.13,17.99Z " /><path id="圆形 1" fill-rule="evenodd" style="fill:#EB765E" transform="translate(30.48767660462887 74.90822141757312)  rotate(0 9.65443092479914 4.57315149069433)" opacity="1" d="M9.65,0C4.32,0 0,2.05 0,4.57C0,7.1 4.32,9.15 9.65,9.15C14.99,9.15 19.31,7.1 19.31,4.57C19.31,2.05 14.99,0 9.65,0Z " /><path id="圆形 1" fill-rule="evenodd" style="fill:#EB765E" transform="translate(89.43051804024468 74.90822141757312)  rotate(0 9.65443092479914 4.57315149069433)" opacity="1" d="M9.65,0C4.32,0 0,2.05 0,4.57C0,7.1 4.32,9.15 9.65,9.15C14.99,9.15 19.31,7.1 19.31,4.57C19.31,2.05 14.99,0 9.65,0Z " /></g></g></g></svg>