<svg xmlns="http://www.w3.org/2000/svg" xmlns:xlink="http://www.w3.org/1999/xlink" width="201" height="200" viewBox="0 0 201 200" fill="none"><defs><rect id="path_0" x="0" y="0" width="200.390625" height="200" /><linearGradient id="linear_0" x1="18.647%" y1="50%" x2="102.972%" y2="15.856%" gradientUnits="objectBoundingBox"><stop offset="0" stop-color="#46607F" stop-opacity="0.01" /><stop offset="0.4896" stop-color="#46607F" stop-opacity="0.62" /><stop offset="1" stop-color="#46607F" stop-opacity="1" /></linearGradient></defs><g opacity="1" transform="translate(0 0)  rotate(0 100.1953125 100)"><mask id="bg-mask-0" fill="white"><use xlink:href="#path_0"></use></mask><g mask="url(#bg-mask-0)" ><path id="分组 1" fill-rule="evenodd" fill="url(#linear_0)" transform="translate(-15.999999999999988 12.00000000000013)  rotate(25.33969092118414 100.07853802596054 88.46865571046011)" opacity="1" d="M156.403 62.5083C166.753 62.5083 175.153 54.1083 175.153 43.7583C175.153 33.4083 166.753 25.0083 156.403 25.0083C146.053 25.0083 137.653 33.4083 137.653 43.7583C137.653 54.1083 146.053 62.5083 156.403 62.5083Z M10.32 75.67C4.84 77.86 0.95 82.83 0.15 88.69C-0.65 94.54 1.76 100.37 6.45 103.95L36.91 127.76C32.94 143.37 38.86 159.83 51.86 169.33C64.87 178.84 82.34 179.49 96.01 170.97C109.69 162.45 116.81 146.48 114 130.61L162.65 87.06C179.04 84.7 192.69 73.29 197.92 57.57C203.15 41.86 199.05 24.53 187.33 12.83L187.34 12.82C175.63 1.11 158.31 -2.99 142.59 2.24C126.88 7.46 115.46 21.12 113.1 37.51L73.12 98.1C67.68 98.38 62.36 99.78 57.5 102.21L26.66 78.1C22.05 74.41 15.81 73.48 10.32 75.67Z M82.1372 121.448C87.6672 125.768 89.8372 133.108 87.5572 139.738C85.2672 146.358 79.0272 150.798 72.0272 150.788C68.4872 150.788 64.9272 149.648 61.9272 147.308L48.8572 137.098L48.8472 137.508C48.8472 144.488 51.6172 151.178 56.5472 156.108C61.4872 161.048 68.1772 163.818 75.1572 163.818L75.1672 163.808C85.1972 163.778 94.3372 158.048 98.7372 149.028C103.127 140.008 102.007 129.278 95.8472 121.358C89.6872 113.438 79.5672 109.718 69.7372 111.758L82.1372 121.448Z M187.663 43.762C187.663 26.502 173.673 12.502 156.413 12.502C145.243 12.502 134.923 18.452 129.343 28.122C123.753 37.792 123.753 49.712 129.343 59.382C134.923 69.052 145.233 75.012 156.404 75.012C173.663 75.012 187.654 61.022 187.663 43.762Z " /></g></g></svg>