<svg xmlns="http://www.w3.org/2000/svg" xmlns:xlink="http://www.w3.org/1999/xlink" width="100" height="100" viewBox="0 0 100 100" fill="none"><defs><rect id="path_0" x="0" y="0" width="100" height="100" /><path id="path_1"
        transform="translate(0 0) rotate(0 50 50)"
        d="M0,84C0,92.84 7.16,100 16,100L84,100C92.84,100 100,92.84 100,84L100,16C100,7.16 92.84,0 84,0L16,0C7.16,0 0,7.16 0,16L0,84Z" /><linearGradient id="linear_0" x1="7400%" y1="4273.420000000001%" x2="7401%" y2="12873.400000000001%" gradientUnits="objectBoundingBox"><stop offset="0" stop-color="#FFFFFF" stop-opacity="1" /><stop offset="1" stop-color="#78B6FF" stop-opacity="1" /></linearGradient><linearGradient id="linear_1" x1="5100%" y1="1870.27%" x2="5101%" y2="3318.5499999999997%" gradientUnits="objectBoundingBox"><stop offset="0" stop-color="#FFFFFF" stop-opacity="1" /><stop offset="1" stop-color="#FFFFFF" stop-opacity="1" /></linearGradient><linearGradient id="linear_2" x1="5100%" y1="1318.5500000000002%" x2="5101%" y2="2418.5500000000006%" gradientUnits="objectBoundingBox"><stop offset="0" stop-color="#FFFFFF" stop-opacity="1" /><stop offset="0.0001" stop-color="#FFFFFF" stop-opacity="1" /><stop offset="1" stop-color="#E1EFFF" stop-opacity="1" /></linearGradient></defs><g opacity="1" transform="translate(0 0)  rotate(0 50 50)"><mask id="bg-mask-0" fill="white"><use xlink:href="#path_0"></use></mask><g mask="url(#bg-mask-0)" ><g opacity="1" transform="translate(0 0)  rotate(0 50 50)"><mask id="mask-1" fill="white"><use xlink:href="#path_1"></use></mask><g mask="url(#mask-1)"><path id="路径 1" fill-rule="evenodd" style="fill:#1681FF" transform="translate(0 0)  rotate(0 50 50)" opacity="1" d="M0,84C0,92.84 7.16,100 16,100L84,100C92.84,100 100,92.84 100,84L100,16C100,7.16 92.84,0 84,0L16,0C7.16,0 0,7.16 0,16L0,84Z " /></g><g mask="url(#mask-1)"><path id="路径 2" fill-rule="evenodd" fill="url(#linear_0)" transform="translate(23.000015248786575 42.73421993049362)  rotate(0 50.99999090554298 66.00023085624258)" opacity="1" d="M1.91,89.56C7.96,106.39 26.79,132.66 76.54,131.99C116.34,131.45 100.74,120.54 87.97,115.15C83.04,112.46 71.7,97.37 65.78,58.58C59.86,19.79 56.37,13.46 49.65,6.72C42.92,-0.01 27.19,-5.54 1.91,10.09C4.6,10.99 9.57,15.74 7.96,27.6C5.94,42.41 -4.14,72.72 1.91,89.56Z " /></g><g mask="url(#mask-1)"><path id="路径 3" fill-rule="evenodd" fill="url(#linear_1)" transform="translate(36.558128885946005 19.38049081370339)  rotate(0 14.441871114053999 7.269904593148304)" opacity="1" d="M24.43,13.91C24.79,13.85 25.08,13.59 25.18,13.24L28.84,1.29C29.08,0.5 28.3,-0.23 27.52,0.07L20.58,2.77L14.44,4.81L8.31,2.77L1.36,0.07C0.59,-0.23 -0.2,0.5 0.05,1.29L3.7,13.24C3.81,13.59 4.1,13.85 4.46,13.91C5.74,14.11 9.11,14.54 14.44,14.54C19.77,14.54 23.14,14.11 24.43,13.91Z " /></g><g mask="url(#mask-1)"><path id="路径 4" fill-rule="evenodd" fill="url(#linear_2)" transform="translate(45.1445 14.02302336782282)  rotate(0 5.8733 5.081238316088591)" opacity="1" d="M5.02,0.46L0,8.22L5.86,10.16L11.75,8.21L6.7,0.45C6.3,-0.15 5.41,-0.15 5.02,0.46Z " /></g><g mask="url(#mask-1)"><path id="路径 5" fill-rule="evenodd" style="fill:#1681FF" transform="translate(43 54)  rotate(0 3.5 3.5)" opacity="1" d="M3.5,0C1.57,0 0,1.57 0,3.5C0,5.43 1.57,7 3.5,7C5.43,7 7,5.43 7,3.5C7,1.57 5.43,0 3.5,0Z " /></g></g></g></g></svg>