<?xml version="1.0" standalone="no"?><!DOCTYPE svg PUBLIC "-//W3C//DTD SVG 1.1//EN" "http://www.w3.org/Graphics/SVG/1.1/DTD/svg11.dtd"><svg t="1639469937575" class="icon" viewBox="0 0 1024 1024" version="1.1" xmlns="http://www.w3.org/2000/svg" p-id="2518" xmlns:xlink="http://www.w3.org/1999/xlink" width="32" height="32"><defs><style type="text/css"></style></defs><path d="M808.72578125 588.09570313c-19.30078125-58.0078125-78.890625-79.25976563-92.44335938-80.52539063s-25.89257813-8.75390625-16.82226562-24.15234375c8.96484375-15.3984375 25.5234375-60.328125-6.27539062-91.91601563-31.95703125-31.74609375-101.77734375-19.77539063-151.13671876 0.73828126-49.359375 20.51367188-46.66992188 6.22265625-45.19335937-7.8046875 1.63476563-14.765625 28.265625-97.50585938-53.05078125-107.52539063-106.57617188-13.02539063-243.26367188 118.65234375-291.515625 194.484375C79.30390625 585.828125 90.85273438 663.34765625 90.85273438 663.34765625h0.47460937c8.75390625 106.9453125 166.58789063 192.21679688 360.01757813 192.21679688 166.32421875 0 306.43945313-63.12304688 347.83593749-148.81640626 0 0 0.10546875-0.31640625 0.52734376-1.00195312 4.27148438-9.22851563 7.64648438-18.61523438 9.65039062-28.37109375 5.80078125-22.9921875 10.28320313-56.37304688-0.6328125-89.27929688z m-381.26953125 220.74609374c-137.68945313 0-249.43359375-73.828125-249.43359375-164.90039062 0-91.01953125 111.5859375-164.79492188 249.43359375-164.79492188 137.68945313 0 249.43359375 73.77539063 249.43359375 164.79492188 0 91.125-111.74414063 164.90039063-249.43359375 164.90039063z" fill="#E71F19" p-id="2519"></path><path d="M766.59101563 443.4453125a18.45703125 18.45703125 0 0 0 7.8046875 1.6875 20.14453125 20.14453125 0 0 0 18.61523437-12.39257813 99.66796875 99.66796875 0 0 0-130.5703125-130.46484374 20.35546875 20.35546875 0 0 0-10.81054687 26.52539062 20.40820313 20.40820313 0 0 0 26.63085937 10.7578125 59.16796875 59.16796875 0 0 1 77.51953125 77.4140625 20.0390625 20.0390625 0 0 0 10.81054688 26.47265625z" fill="#F5AA15" p-id="2520"></path><path d="M700.09296875 170.22851562c-22.72851563 0-45.140625 3.32226563-66.70898438 9.59765626a30.375 30.375 0 0 0 17.24414063 58.16601562c16.08398438-4.69335938 32.64257813-7.06640625 49.46484375-7.06640625a172.96875 172.96875 0 0 1 165.63867187 222.90820313 30.32226563 30.32226563 0 0 0 29.16210938 39.07617187 30.796875 30.796875 0 0 0 29.16210937-21.46289063 233.9296875 233.9296875 0 0 0-223.96289062-301.21874999z" fill="#F5AA15" p-id="2521"></path><path d="M404.41132812 539.36914063c-73.45898438 0-132.99609375 51.78515625-132.99609374 116.06835937 0 64.23046875 59.53710938 116.2265625 132.99609374 116.2265625 73.51171875 0 132.99609375-51.99609375 132.99609376-116.2265625 0-64.28320313-59.53710938-116.06835938-132.99609376-116.06835938z m-43.45312499 191.47851562a46.56445313 46.56445313 0 1 1-0.10546875-93.12890625 46.56445313 46.56445313 0 0 1 0.10546875 93.12890625z m87.16992187-83.7421875c-5.53710938 9.75585938-16.82226563 13.81640625-25.1015625 8.96484375-8.2265625-4.640625-10.23046875-16.453125-4.69335938-26.10351563 5.53710938-9.80859375 16.875-13.81640625 25.10156251-9.01757812 8.2265625 4.79882813 10.28320313 16.55859375 4.69335937 26.15625z" fill="#040000" p-id="2522"></path></svg>